<svg xmlns="http://www.w3.org/2000/svg" xml:space="preserve" id="Layer_1" x="0" y="0" viewBox="0 0 2000 2000"><style>.st0{fill:#168fd6}</style><path d="M891.4 873.4c-.1.3-.3.5-.5.2-.3-.4-.1-1.1.1-1.3L860.6 800l-38.5 2.3c1 8-1.4 16.1-4.4 24.2l-26.4 71.2c0 .2-.1.4-.2.5l-14.9 40.3c0 .4-.1.9-.4 1l-15 40.5h11.1c.1 0 .1-.1.2-.1 0 0 .1 0 .1.1h17.4l4.2-10c-.4-.5-.6-1.6-.2-2.6.4-.9.9-.5 1.2.3l16.4-39.2c-.5-.2-.3-1.6.2-1.5.2 0 .2.2.3.4v-.1l8-19.1 7.4 13.5c.1-.2.2-.4.4-.4.4.1.4 1 .2 1.4l16.9 30.9 5.5 3.8c.2-.1.3.1.4.3l32.1 22.2 47.1-1.4c-.2-.5 0-1.3.4-1.3.3.1.4.8.2 1.2l5.2-.2zm-107.9 46.8c.3.1.2 1-.1.9-.3 0-.2-.9.1-.9m-.2 17.3c.5.1.4 1.7-.1 1.6-.5-.2-.4-1.7.1-1.6m-.3 30c.2.3-.1 1.1-.3.8s.1-1.1.3-.8m-18.4 4.3c-.4-.6.1-1.9.5-1.3s-.1 1.9-.5 1.3m2.3 4.2c-.2-.3.1-1.1.3-.8.2.4-.1 1.2-.3.8m5-22.7c-.3-.1-.2-1 .1-.9s.2 1-.1.9m.4 14.6c-.4-.1-.3-1.3.1-1.2.4 0 .3 1.3-.1 1.2m.4-13.6c-.3-.1-.2-1 .1-.9s.2 1-.1.9m2.7.5c-.5-.1-.4-1.7.1-1.6.6.2.4 1.7-.1 1.6m1.2-7.7c0 .1 0 .2-.1.4-.3.8-.9-.1-.6-.9.1-.4.3-.4.5-.2.1-.1.2-.2.3 0 .2.1.1.5-.1.7m2.1-7.4c-.2-.3.1-1.1.3-.8.3.3 0 1.1-.3.8m4.8 34.9c-.7 1.6-1.9-.2-1.2-1.8.6-1.7 1.8.1 1.2 1.8m.1-13c-.3-.1-.2-1 .1-.9s.2 1-.1.9m1.4-4.8c-.2-.3.1-1.1.3-.8.3.3 0 1.1-.3.8m.7 12.7c-.5-.1-.4-1.7.1-1.6.5.2.4 1.8-.1 1.6m1.7-4.8c-.2-.3.1-1.1.3-.8.2.4-.1 1.2-.3.8m.1-8.8c-.2-.3.1-1.1.3-.8s-.1 1.1-.3.8m.4-44.6c.3-.8.9.1.6.9s-.9-.1-.6-.9m.8 50.6c-.3-.1-.2-1 .1-.9.3 0 .2.9-.1.9m3.2-4.8c-.4-.6.1-1.9.5-1.3.4.5-.1 1.8-.5 1.3m.9 6.2c-.2-.3.1-1.1.3-.8.3.3 0 1.1-.3.8m16.5-100.6c.5.1.4 1.7-.1 1.6-.6-.1-.5-1.7.1-1.6M795.4 911c.4.1.3 1.3-.1 1.2-.4 0-.3-1.2.1-1.2m0 49.5c-.2-.3.1-1.1.3-.8.3.4 0 1.2-.3.8m-.4-8.1c-1-.2-.7-3.3.3-3.1 1.1.2.8 3.3-.3 3.1m2-17.6c-.5-.1-.4-1.7.1-1.6.6.1.4 1.7-.1 1.6m2 7.2c-.3-.1-.2-1 .1-.9.3 0 .2.9-.1.9m2.2-24.5c-.5-.1-.4-1.7.1-1.6.5.2.4 1.7-.1 1.6m.3-13c-.5-.1-.4-1.7.1-1.6.6.2.4 1.7-.1 1.6m1-25.4c-.3-.1-.2-1 .1-.9s.2 1-.1.9m2.5-8.4c-.5-.1-.4-1.7.1-1.6s.4 1.7-.1 1.6m.6 41.3c-.5-.1-.4-1.7.1-1.6.6.2.4 1.7-.1 1.6m1.8-5.7c-.3-.1-.2-1 .1-.9.2 0 .2.9-.1.9m1.1-31c-.3-.1-.2-1 .1-.9.3 0 .2 1-.1.9m.3 57.4c-.3-.1-.2-1 .1-.9.3 0 .2.9-.1.9m.8-40.6c-1-.2-.7-3.3.3-3.1 1 .3.7 3.4-.3 3.1m2.8-17.8c.3.1.2 1-.1.9-.3 0-.2-.9.1-.9m-1 2c-.3-.1-.2-1 .1-.9s.2 1-.1.9m.5 13.6c.2-.5.5.2.3.7s-.5-.2-.3-.7m.6 16.9c-.3-.1-.2-1 .1-.9.3 0 .2 1-.1.9m-.1-6c-.5-.1-.4-1.7.1-1.6.6.1.4 1.7-.1 1.6m.8-36.5c-.5-.1-.4-1.7.1-1.6s.4 1.7-.1 1.6m2.5 29.6c-.3-.1-.2-1 .1-.9.3 0 .2.9-.1.9m1.3-15.2c.5.1.4 1.7-.1 1.6-.6-.1-.4-1.7.1-1.6m-.2 32c-.3-.1-.2-1 .1-.9s.2 1-.1.9m.5-14c-.5-.1-.4-1.7.1-1.6.6.2.4 1.7-.1 1.6m.1-30.2c-.5-.1-.4-1.7.1-1.6.6.2.4 1.7-.1 1.6m4.3-50.9c.5.1.4 1.7-.1 1.6-.5-.2-.4-1.7.1-1.6m-1.2 32.3c-.5-.1-.4-1.7.1-1.6.5.2.4 1.7-.1 1.6m1 25.3c-.5-.1-.4-1.7.1-1.6.6.2.5 1.8-.1 1.6m.1-16c-.5-.1-.4-1.7.1-1.6s.4 1.7-.1 1.6m.4-38.3c-.3.8-.9-.3-.5-1.1.3-.8.8.3.5 1.1m67.3 63.3c.3-.8.9.1.6.9s-.9-.1-.6-.9m-8.5-28.1c.2.3-.1 1.1-.3.8-.3-.4 0-1.2.3-.8m-.5 2.9c.5.1.4 1.7-.1 1.6s-.4-1.7.1-1.6m-.2 10.4c.4.6-.1 1.9-.5 1.3s.1-1.9.5-1.3m-2.7 13.9c.3-.8.9.3.5 1.1-.3.8-.9-.3-.5-1.1m-.2 8.5c.2 0 .3.4.3.7 0 .4-.2.9-.5.8-.4-.1-.3-1.6.2-1.5m-.4 6.9c.7-1.6 1.9.2 1.2 1.8-.7 1.7-1.9-.1-1.2-1.8m-.6-44.1c.4.6-.1 1.9-.5 1.3s.1-1.8.5-1.3m-2.6-17.3c.7-1.6 1.9.2 1.2 1.8 0 .1-.1.1-.1.2 0 0 0 .1-.1.1-.6 1.1-1.6-.6-1-2.1m-1.3 9.9c.3-.8.9.1.6.9-.4.8-1-.1-.6-.9m-1.4-20.4c.4.6-.1 1.9-.5 1.3s.1-1.9.5-1.3m-3.6 29.6c.3-.8.9.3.5 1.1-.3.9-.9-.3-.5-1.1m-1.1 11.4c0 .1-.1.2-.1.3-.6 1-1.4-.7-1.1-2.2 0-.1.1-.2.1-.3.7-1.7 1.8.6 1.1 2.2m-1 4.9c-.2-.3.1-1.1.3-.8s-.1 1.1-.3.8m0-32.7c.5.1.4 1.7-.1 1.6s-.4-1.7.1-1.6m-1.5 11.5c.5.1.4 1.7-.1 1.6s-.4-1.7.1-1.6m.6 14.2c.8 1.1-.2 3.7-1 2.6-.8-1.2.1-3.8 1-2.6m-3.8-40.9c.3-.8.9.1.6.9-.3.9-.9 0-.6-.9m.7 46c-.3.8-.9-.1-.6-.9s.9.1.6.9m-.3-38.2c.4.6-.1 1.9-.5 1.3s.1-1.9.5-1.3m-1 16.8c.5.1.4 1.7-.1 1.6-.5-.2-.4-1.8.1-1.6m-2.6 7c-.5-.1-.4-1.7.1-1.6s.4 1.7-.1 1.6m-.2-40.5c.3.1.2 1-.1.9-.3 0-.2-1 .1-.9m-.1-13c.5.1.4 1.7-.1 1.6-.6-.1-.4-1.7.1-1.6m-.8 54.3c.3-.8.9.1.6.9s-.9-.1-.6-.9m-3.5-44.7c.3-.8.9.3.5 1.1-.3.8-.8-.3-.5-1.1m-.7 17.9c.5.1.4 1.7-.1 1.6s-.4-1.7.1-1.6m-.6-16c.5.1.4 1.7-.1 1.6s-.4-1.7.1-1.6m-.3 25.5q-.15.3-.6.3c-.6-.1-.8-1.3-.5-2.2.1-.6.4-1 .8-.9.9.2.9 2.1.3 2.8m-.3-7.1c.5.1.4 1.7-.1 1.6s-.4-1.7.1-1.6m-.4-18.6c.5.1.4 1.7-.1 1.6-.6-.1-.4-1.7.1-1.6m-3.7 20.7c.7-1.6 1.8.6 1.1 2.2s-1.8-.6-1.1-2.2m-1.7-8.4c.3-.8.9.1.6.9s-1-.1-.6-.9m-1.8-20.8c.7-1.6 1.8.6 1.1 2.2s-1.8-.6-1.1-2.2m.3 22.5c-.3-.1-.2-1 .1-.9h.1s.1.1.1.2c0 .3-.1.7-.3.7m-.8 8.9c1 .2.7 3.3-.3 3.1s-.7-3.3.3-3.1m-3.1-22.5c.3.1.2 1-.1.9-.3 0-.2-.9.1-.9m-.3 5.3c-.1.1-.1.2-.2.2-.2.1-.4-.2-.4-.7 0-.2 0-.5.1-.7.3-.7.9.4.5 1.2m-.7-12.9c.3.1.2 1-.1.9s-.2-.9.1-.9m-.5 49.7c.4.1.3 1.3-.1 1.2-.4 0-.3-1.2.1-1.2m-.7 9.3c.5.1.4 1.7-.1 1.6-.5-.2-.4-1.7.1-1.6m-4.3-51.6c.3-.8.9.3.5 1.1-.3.8-.8-.3-.5-1.1m-2 50.4c.5.1.4 1.7-.1 1.6s-.4-1.7.1-1.6m-1.9-4.1q-.15 0 0 0c0 .2-.1.6-.3.5-.3-.1-.2-.9.1-.9-.1-.5.1-1.2.4-1.2.4.2.3 1.7-.2 1.6m-.4-2.9c.5.1.4 1.7-.1 1.6-.6-.1-.4-1.7.1-1.6m.4-33c-.3.8-.9-.3-.5-1.1.3-.8.9.3.5 1.1m0-2.5c-.3.8-.9-.3-.5-1.1.3-.8.8.3.5 1.1m-.7-17.6c.5.1.4 1.7-.1 1.6-.6-.2-.4-1.7.1-1.6m-1.2 29.4c.5.1.4 1.7-.1 1.6-.6-.1-.4-1.7.1-1.6m-1.1-29.1c.2-.5.6 0 .4.5-.3.5-.6 0-.4-.5m-.1 85.9c.3.1.2 1-.1.9-.3 0-.2-.9.1-.9m-.8-13.3c.3.1.2 1-.1.9-.3 0-.2-.9.1-.9m-1.3-1.1c.3-.8.9.3.5 1.1-.3.8-.8-.3-.5-1.1m-.5-59.6c.5.1.4 1.7-.1 1.6-.6-.1-.4-1.7.1-1.6m4.9 106.1c-.2 0-.2-.5-.1-.7-.1.1-.2.2-.3.2-.5-.1-.4-1.7.1-1.6.4.1.4.8.2 1.3 0-.1.1-.1.2-.1.3.1.2 1-.1.9m13.9 5c-.5-.1-.4-1.7.1-1.6s.4 1.7-.1 1.6m1.5 19.2c-.5-.1-.4-1.7.1-1.6.6.1.4 1.7-.1 1.6m4.3 9.7c-.5-.1-.4-1.7.1-1.6s.4 1.7-.1 1.6m4.3-26c-.3-.1-.2-1 .1-.9.3 0 .2 1-.1.9m.7 19.4c-.4-.1-.3-1.3.1-1.2.4 0 .3 1.2-.1 1.2m.5 3.3c-.5-.1-.4-1.7.1-1.6.6.1.5 1.7-.1 1.6m1.9-17.1c-1-.2-.7-3.3.3-3.1s.8 3.3-.3 3.1m1.3 17.7c.3.1.2 1-.1.9-.3 0-.2-1 .1-.9m.5-6.8c.4.6-.1 1.9-.5 1.3-.4-.5.1-1.8.5-1.3m-.3 12.3c-.5-.1-.4-1.7.1-1.6s.4 1.7-.1 1.6m3.9-6.9c-.4-.6.1-1.9.5-1.3.4.5-.1 1.8-.5 1.3m.9-11.3c-.5-.1-.4-1.7.1-1.6.6.2.4 1.7-.1 1.6m5.8 10.3c-.5-.1-.4-1.7.1-1.6.6.2.4 1.7-.1 1.6m3.4 9.7c-.3-.1-.2-1 .1-.9.3 0 .2.9-.1.9m1.8-18.2c-.3.8-.9-.1-.6-.9s.9.1.6.9m.7 9.7c-.5-.1-.4-1.7.1-1.6.6.2.4 1.7-.1 1.6m1 11.4c-.5-.1-.4-1.7.1-1.6.6.1.4 1.7-.1 1.6m2.5-6.8c-.3-.1-.2-1 .1-.9.2.1.2 1-.1.9m2.4 12.7c-.4-.6.1-1.9.5-1.3s-.1 1.9-.5 1.3m.5-11.7c-.3-.1-.2-1 .1-.9s.2 1-.1.9m6.1 20.7c-.4-.6.1-1.9.5-1.3s-.1 1.9-.5 1.3m-63-77.5 12.3-28.5c-.1.1-.1.1-.2.1-.5-.1-.4-1.7.1-1.6.3.1.4.6.3 1l13.7-31.7 41.7 110.7zm68.8-16.4c.3-.8.9.3.5 1.1-.3.9-.8-.3-.5-1.1m.3 42.1c-.2-.3.1-1.1.3-.8.2.4-.1 1.1-.3.8m.3-45.4c-.3-.1-.2-1 .1-.9s.2 1-.1.9m4.8 68.9c1 .2.7 3.3-.3 3.1s-.7-3.3.3-3.1m.3 9.2c-.5-.1-.4-1.7.1-1.6.5.2.4 1.7-.1 1.6m4.9-32.8c-.4-.6.1-1.9.5-1.3.4.5-.1 1.8-.5 1.3m8 .5c-.4-.6.1-1.9.5-1.3.4.5 0 1.8-.5 1.3m7.8 31.2c-.3-.1-.2-1 .1-.9s.2 1-.1.9m.4 20.8c-.3-.1-.2-1 .1-.9.3 0 .3.9-.1.9m2.6-28.1c-.5-.1-.4-1.7.1-1.6.5.2.4 1.7-.1 1.6m1.9 23.8c-.5-.1-.4-1.7.1-1.6.6.2.4 1.7-.1 1.6m5-4.7c-.3-.1-.2-1 .1-.9.3 0 .2.9-.1.9M380.1 800h-3.9c2.8 7.5 4.7 17.3 5.1 30.1.1 2.7.2 5.5.4 8.2 0 .6.1 1.2.1 1.7.1-.1.2-.2.3-.2.5.1.4 1.7-.1 1.6 0 0-.1 0-.1-.1.4 8.9.8 20.3 1 33.5.6-.1 1.2 1.2.7 2.4-.2.5-.4.6-.6.6.1 6.8.2 14.1.3 21.7.6-.4 1.3 1.4.7 2.7-.2.5-.5.6-.7.5v4.1c0-.1.1-.3.2-.3-.1-.5.1-1.3.4-1.2.5.1.4 1.7-.1 1.6h-.1c0 .3-.1.6-.3.6-.1 0-.1-.1-.2-.2.1 10.4.1 21.4.2 32.6.7.4.6 2.3 0 2.9v9.9c0 8.2.1 16.6.1 25 5-.6 9.5-.9 13.3-.9 2.4 0 4.7.1 6.7.4h.1l.9.1c.3 0 .6.1.9.1h.3c1.8.3 3.9.6 6.2.7-.4-1.6-.8-3.3-1.1-4.9-.1.2-.3.2-.4 0-.3-.4-.1-1.2.2-1.4-1.3-6.8-1.9-13.6-1.9-20.6v-32.6l4.7-1.4c-.2-.4-.1-1.5.4-1.4.3.1.4.7.2 1.2l3.2-1c29.8-9.1 56.5-34.6 81.5-77.8-8.5-10.4-20-18.6-34.6-24.7-.1.2-.2.4-.4.3-.2 0-.3-.3-.3-.6-.1 0-.2-.1-.3-.1-.1.3-.2.6-.4.5s-.3-.4-.3-.8q-18.3-7.35-42.9-10.5c0 .1 0 .2-.1.3-.2.6-.6.2-.6-.4-7.6-1-15.7-1.6-24.2-2-.1.3-.2.6-.4.6s-.3-.3-.3-.6q-4.65-.15-9.6-.3H381c0 .2 0 .3-.1.5-.4.7-.8.2-.8-.4m111.2 33c.3-.8.9.3.5 1.1-.3.8-.9-.3-.5-1.1m.3 14.4c.4.6-.1 1.9-.5 1.3-.4-.5.1-1.8.5-1.3m-2.6-17.3c.7-1.6 1.9.2 1.2 1.8 0 .1-.1.1-.1.2 0 0 0 .1-.1.1-.6 1.1-1.6-.5-1-2.1m-1.4 9.9c.3-.8.9.1.6.9s-.9-.1-.6-.9m-6.7 24.7c.2.3-.1 1.1-.3.8-.3-.3 0-1.1.3-.8m-1.2-10.3c.3-.8.9.3.5 1.1-.3.9-.9-.3-.5-1.1m-.1 4.1c.8 1.1-.2 3.7-1 2.6s.2-3.7 1-2.6m-1 7.3c0 .1-.1.2-.1.3-.6 1-1.4-.7-1.1-2.2 0-.1.1-.2.1-.3.7-1.7 1.8.6 1.1 2.2m-1-27.8c.5.1.4 1.7-.1 1.6s-.4-1.7.1-1.6m-1.1 25.6c-.3.8-.9-.1-.6-.9s1 .1.6.9m-.2-38.2c.4.6-.1 1.9-.5 1.3-.4-.5.1-1.8.5-1.3m-.2 24.1c.5.1.4 1.7-.1 1.6s-.4-1.7.1-1.6m-.8-7.3c.5.1.4 1.7-.1 1.6-.5-.2-.4-1.7.1-1.6m-3.7 7.8c.3-.8.9.1.6.9-.3.9-.9 0-.6-.9m-1.9 4.4c-.5-.1-.4-1.7.1-1.6s.4 1.7-.1 1.6m-.5-6.2c.3-.8.9.1.6.9s-.9-.1-.6-.9m-.6 17.4c.3.1.2 1-.1.9-.3 0-.2-.9.1-.9m-.4 5.3c-.3.8-.9-.1-.6-.9.3-.9.9 0 .6.9m-.8-47.6c.5.1.4 1.7-.1 1.6-.6-.2-.4-1.7.1-1.6m-1.8 40.1c.5.1.4 1.7-.1 1.6-.6-.1-.5-1.7.1-1.6m-2.5 20.1c-.5-.1-.4-1.7.1-1.6s.4 1.7-.1 1.6m.3-7.9c-.3-.1-.2-1 .1-.9.3 0 .2 1-.1.9m-.2-44.8c.5.1.4 1.7-.1 1.6s-.4-1.7.1-1.6m-.8 5.2c.1-.6.4-1 .8-.9.8.2.8 2.1.3 2.8q-.15.3-.6.3c-.5-.1-.7-1.3-.5-2.2m-79.6-4.5c-.5-.1-.4-1.7.1-1.6.6.1.5 1.7-.1 1.6m.5 57.3c-.4-.6.1-1.9.5-1.3.4.5-.1 1.8-.5 1.3m1.4 79.1c-.4-.1-.3-1.3.1-1.2.4 0 .3 1.3-.1 1.2m.1-26.5c.2-.5.6 0 .4.5-.2.6-.6 0-.4-.5m.3 12.9c-.3-.1-.2-1 .1-.9s.2 1-.1.9m0-35.1c-.5-.1-.4-1.7.1-1.6.6.1.5 1.7-.1 1.6m1.6 12.7c-.3-.1-.2-1 .1-.9s.2 1-.1.9m-.2-23.4c.2-.5.6 0 .4.5s-.6 0-.4-.5m.4-72.4c-.5-.1-.4-1.7.1-1.6.6.2.4 1.7-.1 1.6m.5 63c.3-.8.9.1.6.9s-.9-.1-.6-.9m.7-38.9c.4.6-.1 1.9-.5 1.3s.1-1.9.5-1.3m-.2-6.5c.5.1.4 1.7-.1 1.6-.5-.2-.4-1.7.1-1.6m.3 52.5c-.2-.3.1-1.1.3-.8.3.4 0 1.1-.3.8m-.3 33.1c-.4-.6.1-1.9.5-1.3s-.1 1.9-.5 1.3m-.2-37.6c.3.1.2 1-.1.9-.2 0-.2-1 .1-.9m.1 53.1c-.5-.1-.4-1.7.1-1.6.6.2.4 1.7-.1 1.6m1.2-7.7c0 .1 0 .2-.1.4-.3.8-.9-.1-.6-.9.1-.4.3-.4.5-.2.1-.1.2-.2.3 0 .2.1.1.5-.1.7m2.1-25.3c.3.1.2 1-.1.9s-.2-1 .1-.9m0 17.9c-.2-.3.1-1.1.3-.8.3.3 0 1.1-.3.8m.1-13.6c-.2-.3.1-1.1.3-.8s-.1 1.1-.3.8m2.7-23.3c-.4-.6.1-1.9.5-1.3s-.1 1.9-.5 1.3m2 71.8c-.7 1.6-1.9-.2-1.2-1.8.6-1.7 1.8.1 1.2 1.8m0-54.4c.3.1.2 1-.1.9-.3 0-.2-.9.1-.9m.1-46.8c.3-.8.9.3.5 1.1-.3.8-.9-.3-.5-1.1m-.3 64.1c.5.1.4 1.7-.1 1.6-.5-.2-.4-1.7.1-1.6m-.6 30.8c-.2-.3.1-1.1.3-.8.2.4-.1 1.1-.3.8m.5-140c-.3-.1-.2-1 .1-.9.3 0 .2 1-.1.9m-.5 68.6c-.5-.1-.4-1.7.1-1.6s.4 1.7-.1 1.6m.9 64.7c-.3-.1-.2-1 .1-.9s.2 1-.1.9m.4-61.1c-.5-.1-.4-1.7.1-1.6.6.2.5 1.7-.1 1.6m1.7 69c-.5-.1-.4-1.7.1-1.6.5.2.4 1.8-.1 1.6m2.2-58.2c.3-.8.9.1.6.9s-.9-.1-.6-.9m.8 50.6c-.3-.1-.2-1 .1-.9.3 0 .2.9-.1.9m2.3-63.7c-.3-.1-.2-1 .1-.9.3 0 .2.9-.1.9m.9 58.9c-.4-.6.1-1.9.5-1.3.4.5-.1 1.8-.5 1.3m.9 6.2c-.2-.3.1-1.1.3-.8.3.3 0 1.1-.3.8m1.9 6.3c-.7 1.6-1.8-.6-1.1-2.2.6-1.6 1.7.6 1.1 2.2m.3-17.2c-1-.2-.7-3.3.3-3.1 1.1.2.8 3.3-.3 3.1m.4-41.4c.4.1.3 1.3-.1 1.2-.4 0-.3-1.2.1-1.2m0 49.5c-.2-.3.1-1.1.3-.8.3.4 0 1.2-.3.8m0 8.3c-.2-.3.1-1.1.3-.8.2.4-.1 1.2-.3.8m.4 1.6c-.2-.3.1-1.1.3-.8.2.4-.1 1.2-.3.8m5.7-65.9c-.5-.1-.4-1.7.1-1.6.6.2.4 1.7-.1 1.6m4.1 7.5c-.5-.1-.4-1.7.1-1.6.6.2.4 1.7-.1 1.6m1.8-5.7c-.3-.1-.2-1 .1-.9.2 0 .2.9-.1.9m2.2-14.2c-1-.2-.7-3.3.3-3.1 1 .3.7 3.4-.3 3.1m2.3-2.2c.2-.5.5.2.3.7s-.5-.2-.3-.7m.6 16.9c-.3-.1-.2-1 .1-.9.3 0 .2 1-.1.9m-.1-6c-.5-.1-.4-1.7.1-1.6.6.1.4 1.7-.1 1.6m4.4 9.9c-.3-.1-.2-1 .1-.9s.2 1-.1.9m.2-32c.5.1.4 1.7-.1 1.6-.6-.1-.4-1.7.1-1.6m.3 18c-.5-.1-.4-1.7.1-1.6.6.2.4 1.7-.1 1.6m1.4-8c-.3-.1-.2-1 .1-.9s.2 1-.1.9m5.8-13.1c-.3.8-.9-.3-.5-1.1s.9.3.5 1.1m.7 1c-.3-.1-.2-1 .1-.9.3 0 .2.9-.1.9m.8 13.3c-.3-.1-.2-1 .1-.9.3 0 .2.9-.1.9m3.2 10.2c-.3-.1-.2-1 .1-.9s.3 1-.1.9m5.9-28.8c-.5-.1-.4-1.7.1-1.6.6.2.4 1.7-.1 1.6m2.2-5.8c-.5-.1-.4-1.7.1-1.6.5.2.4 1.7-.1 1.6m.6 31.7c-.5-.1-.4-1.7.1-1.6s.4 1.7-.1 1.6m2.4-21.8c-.3-.1-.2-1 .1-.9s.2 1-.1.9m.5-4.9c-.3-.1-.2-1 .1-.9.3 0 .2.9-.1.9m8.3-29.9c.5.1.4 1.7-.1 1.6-.6-.2-.4-1.7.1-1.6m-1.1-21.3c.3-.8.9.1.6.9-.4.8-1-.1-.6-.9m-1.3 13.6c.7-1.6 1.8.6 1.1 2.2s-1.8-.6-1.1-2.2m.1 36.9c.4.1.3 1.3-.1 1.2-.5 0-.3-1.2.1-1.2m-2.9 6.5c-.2 0-.3-.3-.3-.6-.1.2-.2.3-.4.3-.5-.1-.4-1.7.1-1.6.2 0 .3.3.3.6.1-.2.2-.3.4-.3.5.2.4 1.7-.1 1.6m-.3-51 .2.2c.1.3 0 .8-.2.7-.4-.1-.3-1 0-.9m-.9 9.8c1 .2.7 3.3-.3 3.1s-.7-3.3.3-3.1m-3.1-22.5c.3.1.2 1-.1.9-.3 0-.2-.9.1-.9m-.8 4.2c.3-.8.9.3.5 1.1-.1.1-.1.2-.2.2-.2.1-.4-.2-.4-.7 0-.2 0-.4.1-.6m-5.7-4.4c.3-.8.9.3.5 1.1-.3.8-.8-.3-.5-1.1m-4.4 6.8c.3-.8.9.3.5 1.1-.3.8-.9-.3-.5-1.1m.5 3.6c-.3.8-.9-.3-.5-1.1.3-.8.9.3.5 1.1m-5.7-7.9c.5.1.4 1.7-.1 1.6-.6-.1-.4-1.7.1-1.6m-1.8.7c.5.1.4 1.7-.1 1.6-.5-.2-.4-1.7.1-1.6m.3 3.3c-.3.8-.9-.3-.5-1.1.3-.8.8.3.5 1.1m-5.6 5.1c.3-.8.9.3.5 1.1-.3.8-.8-.3-.5-1.1m-4.8-15.5c.3-.8.9.3.5 1.1-.3.8-.9-.3-.5-1.1m-1.5 6.7c.2-.5.5.2.3.7s-.5-.2-.3-.7m-5-8.9c.2-.5.5.2.3.7-.1.5-.5-.2-.3-.7m-3.3 11.2c.2 0 .2.3.2.5 0-.2.1-.3.2-.2.3.1.2 1-.1.9-.2 0-.2-.3-.2-.5 0 .2-.1.3-.2.2-.3 0-.2-.9.1-.9m.1 4c-.5-.1-.4-1.7.1-1.6.5.2.4 1.7-.1 1.6m-2.6-9.4c.3.1.2 1-.1.9-.3 0-.2-.9.1-.9m-4.2 1.1c.3-.8.9.3.5 1.1-.3.9-.8-.3-.5-1.1m-1.1.1c.4.1.4 1.1.1 1.4.2.4.1 1.4-.4 1.3-.4-.1-.4-1.1-.1-1.4-.2-.4 0-1.4.4-1.3m-.3 7.9c-.3-.1-.2-1 .1-.9.3 0 .2 1-.1.9m-.5 4.6c.1-.2.2-.3.3-.2v-3.2l5.4 1.2c0-.2 0-.3.1-.5.3-.7.7 0 .6.7l8.4 1.8c1.6.3 3.1.7 4.6 1.1.1-.1.2-.1.3-.1s.2.1.2.2q5.7 1.5 10.2 3.3c7.8 3.1 13.3 7.1 16.8 12.1l3.9 5.6-2.8 6.2c-3.5 7.9-8.8 14.2-15.8 18.8-2.5 1.6-5.1 3.1-8 4.3q-4.35 1.8-9.3 3l-14.8 3.6c0 .5-.2 1-.5.9-.5-.1-.4-1.7.1-1.6.1 0 .2.2.3.4v-37c-.2-.5-.2-1.4 0-2V827c.1.1-.2-.6 0-1.2m-.1 12.1c.2-.5.5.2.3.7s-.5-.2-.3-.7m.1 16.6c.3.1.2 1-.1.9-.3 0-.2-.9.1-.9m-.4-29.4c-.3.8-.9-.3-.5-1.1.3-.9.8.3.5 1.1m-.1-2c-.3.6-.7-.3-.4-.9.3-.7.7.2.4.9m-.4-10.1c.3.1.2 1-.1.9-.3 0-.2-.9.1-.9m-.4 28.5c.5.1.4 1.7-.1 1.6-.6-.2-.4-1.7.1-1.6m-.6 1.5c.5.1.4 1.7-.1 1.6-.6-.1-.4-1.7.1-1.6m-.2-12.9c-.2.5-.5-.2-.3-.7.1-.5.5.2.3.7m-.6-13.5c.3-.8.9.3.5 1.1-.3.8-.9-.3-.5-1.1m-.8-7.3c.3.1.2 1-.1.9-.3 0-.2-.9.1-.9m-.7 87.6c.5.1.4 1.7-.1 1.6-.6-.1-.5-1.7.1-1.6m-.7-70.9c.5.1.4 1.7-.1 1.6-.5-.2-.4-1.7.1-1.6m0 11.8c-.3-.1-.2-1 .1-.9.3 0 .2 1-.1.9m-.4 30.5c.3-.8.9.1.6.9s-1-.1-.6-.9m.1 19.9c.3.1.2 1-.1.9-.3 0-.2-1 .1-.9m-.3 66.9c.2.3-.1 1.1-.3.8-.2-.4.1-1.1.3-.8m0 8.9c.2.3-.1 1.1-.3.8s.1-1.2.3-.8m-.7-56.2c-.2.5-.6 0-.4-.5s.6 0 .4.5m-.5-97.1c.5.1.4 1.7-.1 1.6-.5-.2-.4-1.7.1-1.6m-.3 13c.5.1.4 1.7-.1 1.6-.6-.2-.4-1.7.1-1.6m-.6 32.1c.5.1.4 1.7-.1 1.6-.5-.2-.4-1.7.1-1.6m-.3-8.6c.3.1.2 1-.1.9-.3 0-.2-1 .1-.9m0 108.8c.2.3-.1 1.1-.3.8-.2-.4.1-1.1.3-.8m-1-98.9c.3-.6.7.3.4.9s-.7-.3-.4-.9m-.5-16.9c-.3-.1-.2-1 .1-.9s.2 1-.1.9m0-20.7c-.3.8-.9-.3-.5-1.1.3-.8.9.3.5 1.1m-1-9.6c.3-.8.9.3.5 1.1-.3.8-.9-.3-.5-1.1m-.6-6.6c.2-.5.5.2.3.7-.2.4-.5-.2-.3-.7m-.3 1.3c.2-.5.5.2.3.7-.1.4-.5-.2-.3-.7m.1 36.3c.5.1.4 1.7-.1 1.6s-.4-1.7.1-1.6m-.5-31.6c.3.1.2 1-.1.9-.3 0-.2-.9.1-.9m-.4 76.7c.3.1.2 1-.1.9-.3 0-.2-.9.1-.9m-.6-37.6c.5.1.4 1.7-.1 1.6-.6-.1-.4-1.7.1-1.6m-.6 55.2c-.3-.1-.2-1 .1-.9.3 0 .2.9-.1.9m.5-75.1c-.5-.1-.4-1.7.1-1.6s.4 1.7-.1 1.6m-.6-17.3c.3-.8.9.3.5 1.1-.3.8-.8-.3-.5-1.1m.8 106.4c1 .2.7 3.3-.3 3.1s-.7-3.3.3-3.1m-1.4-69.5c.5.1.4 1.7-.1 1.6s-.4-1.7.1-1.6m-.7 13.9c.4.1.4 1.1.1 1.5.2.3.1 1.2-.3 1.1-.3-.1-.3-.8-.1-1.1-.3-.4-.1-1.6.3-1.5m-1.9 63.1c-.5-.1-.4-1.7.1-1.6.6.2.5 1.7-.1 1.6m-.1-61.1c.5.1.4 1.7-.1 1.6-.6-.1-.4-1.7.1-1.6m-.3 26.2c.5.1.4 1.7-.1 1.6-.6-.2-.4-1.7.1-1.6m-.4-58.4c-.2.5-.5-.2-.3-.7s.5.2.3.7m-.6-3.4c.5.1.4 1.7-.1 1.6-.5-.2-.4-1.7.1-1.6m-.8-5.3c.5.1.4 1.7-.1 1.6s-.4-1.7.1-1.6m-.3 31.6c.5.1.4 1.7-.1 1.6-.5-.2-.4-1.7.1-1.6m-.5-41.6c-.3.8-.9-.3-.5-1.1.3-.8.8.3.5 1.1m-.6-2.9c.5.1.4 1.7-.1 1.6s-.4-1.7.1-1.6m-.7-7.8c.3.1.2 1-.1.9s-.3-1 .1-.9m-.3 150c.3.1.2 1-.1.9-.3 0-.2-1 .1-.9m-.6-31.3c-.5-.1-.4-1.7.1-1.6.6.2.4 1.7-.1 1.6m.2-25.1c-.3-.1-.2-1 .1-.9.3 0 .2.9-.1.9m-.1-13.1c-.3.8-.9-.3-.5-1.1.3-.8.8.3.5 1.1m-.4-7.7c-.3-.1-.2-1 .1-.9s.2 1-.1.9m-.1-50.2c.5.1.4 1.7-.1 1.6-.5-.2-.4-1.7.1-1.6m-.8-18.8c.3.1.2 1-.1.9s-.2-1 .1-.9m.2 21.4c.4.6-.1 1.9-.5 1.3s.1-1.9.5-1.3m-.9-18.2c.3.1.2 1-.1.9s-.2-1 .1-.9m-.4 9.5c.3.1.2 1-.1.9-.3 0-.2-.9.1-.9M574.7 960.3c-.3-22.7-.6-44.8-.8-65.6l-.1-.1c-.2-.2-.1-.7.1-.8-.1-7.2-.1-14.2-.1-21h-.1c-.5-.1-.4-1.7.1-1.6V864c-.1.1-.2 0-.3-.1-.4-.5 0-1.5.3-1.4 0-23.7.3-44.9.9-62.6h-.8q-4.05 0-8.4.6c.1.2.2.6 0 1-.3.8-.9-.1-.6-.9-1.4.2-2.9.4-4.4.7-4 .8-8.4 1.4-12.8 1.6-.9.1-1.7.1-2.6.1-2.1 0-4.3-.2-6.4-.5l-.8-.1 4.8 4.3v64.2c.1-.1.3-.2.4 0 .4.5 0 1.7-.4 1.4V980H575l-.3-18.9c-.1-.2-.1-.5 0-.8m-.9-129.5c.4.6-.1 1.9-.5 1.3-.4-.5.1-1.8.5-1.3m-1.8-24.5c.3.1.2 1-.1.9-.3 0-.2-.9.1-.9m-.4 114.5c.5.1.4 1.7-.1 1.6-.6-.2-.4-1.7.1-1.6m-.2-10.1c.2-.5.6 0 .4.5-.2.6-.6 0-.4-.5m.4-54c-.3.8-.9-.1-.6-.9.3-.9 1 0 .6.9m-.3-1.7c-.1-.1-.1-.2-.1-.3-.4-.2-.3-1.6.2-1.5.2 0 .3.2.3.4 0 0 .1 0 .1.1.4.5-.1 1.8-.5 1.3m.1-23c.3.1.2 1-.1.9s-.2-1 .1-.9m-1 7.1c.4.6-.1 1.9-.5 1.3-.4-.5.1-1.8.5-1.3m-.3 21.5c-.4-.1-.3-1.3.1-1.2.4 0 .3 1.3-.1 1.2m-.4-24.2c.5.1.4 1.7-.1 1.6-.5-.2-.4-1.8.1-1.6m-.4 21.9c.3.4-.1 1.5-.4 1-.3-.4.1-1.5.4-1m-.3-7.1c.3-.7.8.1.5.7-.3.7-.8 0-.5-.7m.2 11.8c.4.1.3 1.3-.1 1.2s-.3-1.3.1-1.2m-.2 2.3c.5.1.4 1.7-.1 1.6-.5-.2-.4-1.7.1-1.6m-.7 29.2c-.2 0-.3-.3-.3-.6-.1-.2-.1-.5 0-.8s.3-.3.4-.2h.1c.4.2.3 1.7-.2 1.6m1-22.1c.4.6-.1 1.9-.5 1.3s.1-1.9.5-1.3m-.4 59.2c.3-.8.9.1.6.9s-.9-.1-.6-.9m.4-69.7c-.5-.1-.4-1.7.1-1.6.6.1.4 1.7-.1 1.6m-.5-12.5c.3-.8.9.1.6.9s-.9-.1-.6-.9m-.9 10.4c-.4-.6.1-1.9.5-1.3s-.1 1.9-.5 1.3m0-6.3c.5.1.4 1.7-.1 1.6-.6-.2-.4-1.7.1-1.6m-.7 8.2c-.3-.4.1-1.5.4-1s-.1 1.5-.4 1m1.2-12.9c-.3.7-.8-.1-.5-.7.3-.7.8 0 .5.7m-.3-11.2c-.2.5-.6 0-.4-.5.2-.6.6 0 .4.5m-.6-5.5c.5.1.4 1.7-.1 1.6s-.4-1.7.1-1.6m0 15.3c-.3.8-.9-.1-.6-.9s.9.1.6.9m-1.2 16.5c-.4-.6.1-1.9.5-1.3.5.6 0 1.9-.5 1.3m.3 18.2c-.3-.1-.2-1 .1-.9.3 0 .2.9-.1.9m0-40.1c.5.1.4 1.7-.1 1.6s-.4-1.7.1-1.6m-.4 18c.3-.8.9.1.6.9-.1.1-.1.2-.2.3 0 .3-.1.6-.3.6s-.2-.5-.1-.8c-.1-.2-.2-.6 0-1m-2.2-41.7c.3-.8.9.1.6.9s-.9-.1-.6-.9m.2 52.3c-.3-.1-.2-1 .1-.9.3 0 .2 1-.1.9m-.8-44.8c-.2-.3.1-1.1.3-.8.3.4 0 1.2-.3.8m0-16c.2.3-.1 1.1-.3.8-.3-.3 0-1.1.3-.8m0 11.3c.5.1.4 1.7-.1 1.6-.6-.1-.4-1.7.1-1.6m-1.2 31.6c-.3.8-.9-.1-.6-.9s1 .1.6.9m-.7 10.5c-.2-.3.1-1.1.3-.8.2.4-.1 1.1-.3.8m-.3 35.5c-.3-.1-.2-1 .1-.9.3 0 .2.9-.1.9m0-62.5c.2-.5.6 0 .4.5-.2.6-.6 0-.4-.5m-2.9 49.4c.3-.8.9.1.6.9-.3.9-.9 0-.6-.9m-.7-83c.3.1.2 1-.1.9s-.2-1 .1-.9m-.6 34.5c-.3-.1-.2-1 .1-.9.3 0 .2 1-.1.9m-.3-17c.2-.5.6 0 .4.5s-.6 0-.4-.5m-.8 49.2c.2-.5.6 0 .4.5s-.6 0-.4-.5m-4-22.2c.3.4-.1 1.5-.4 1-.3-.4.1-1.4.4-1m-1.6 15.2c.2-.5.6 0 .4.5s-.6 0-.4-.5m-1-22.9c.3-.8.9.1.6.9s-.9-.1-.6-.9m-6.1 124.3c-.3-.1-.2-1 .1-.9.3 0 .2 1-.1.9m.4-107.4c-.3.8-.9-.1-.6-.9s.9.1.6.9m0-6.8c-.4-.6.1-1.9.5-1.3s-.1 1.9-.5 1.3m.9 25.8c-.5-.1-.4-1.7.1-1.6.5.2.4 1.7-.1 1.6m.4 98.3c-.5-.1-.4-1.7.1-1.6.6.2.4 1.7-.1 1.6m.8-92.3c.3-.8.9.1.6.9-.4.8-1-.1-.6-.9m.6 96c-.5-.1-.4-1.7.1-1.6s.4 1.7-.1 1.6m.9-77.1c-.3.8-.9-.1-.6-.9.3-.9.9 0 .6.9m.3-2.8c-.3.8-.9-.1-.6-.9s.9.1.6.9m.2-79.6c-.4-.6.1-1.9.5-1.3s-.1 1.9-.5 1.3m1.1 33c.5.1.4 1.7-.1 1.6s-.4-1.7.1-1.6m-.1 17.7c.3-.8.9.1.6.9s-1-.1-.6-.9m.4 27.1c-.5-.1-.4-1.7.1-1.6.5.2.4 1.7-.1 1.6m.7 56.7c-.3-.1-.2-1 .1-.9s.2 1-.1.9m.5-26.3c-.5-.1-.4-1.7.1-1.6.5.2.4 1.7-.1 1.6m1.3-60.4c.4.1.3 1.3-.1 1.2-.4 0-.3-1.2.1-1.2m0 6.6c-.4-.6.1-1.9.5-1.3.4.5-.1 1.8-.5 1.3m.6 14c-.2-.3.1-1.1.3-.8s-.1 1.2-.3.8m.8-61.7c-.3-.1-.2-1 .1-.9.3 0 .2.9-.1.9m.9 107.2c-.3-.1-.2-1 .1-.9.3 0 .2 1-.1.9m.6-49.9c-.3.8-.9-.1-.6-.9s1 .1.6.9m.6-7.3c-.3.8-.9-.1-.6-.9s.9.1.6.9m.2-39.8c-.3.8-.9-.1-.6-.9s1 .1.6.9m.4 71.3c.3-.8.9.1.6.9s-1-.1-.6-.9m.8 14c-.3.8-.9-.1-.6-.9s.9.1.6.9m-.5-24.8c.3-.8.9.1.6.9s-.9-.1-.6-.9m1.1 55.4c-.5-.1-.4-1.7.1-1.6s.4 1.7-.1 1.6m.2-63.4c-.5-.1-.4-1.7.1-1.6.6.2.4 1.7-.1 1.6m.8 22.4c.3-.8.9.1.6.9s-.9-.1-.6-.9m1.3 33.4c-.2.5-.6 0-.4-.5s.6 0 .4.5m-.3-9.7c-.5-.1-.4-1.7.1-1.6.5.2.4 1.7-.1 1.6m.1-44.5c-.4-.6.1-1.9.5-1.3s-.1 1.9-.5 1.3m0-3.5c.3-.8.9.1.6.9-.3.9-.9 0-.6-.9m.8 15.7c.3-.8.9.1.6.9s-.9-.1-.6-.9m.5 59.2c-.3-.1-.2-1 .1-.9s.2 1-.1.9m.3-84.3c-.2-.3.1-1.1.3-.8s-.1 1.1-.3.8m.8 35.4c-.3.8-.9-.1-.6-.9s.9.1.6.9m.2-12.5c-.4-.6.1-1.9.5-1.3.4.5-.1 1.8-.5 1.3m.2 5.1c.3-.8.9.1.6.9s-.9-.1-.6-.9m1 47.9c-.1 0-.2-.2-.3-.3-.2 0-.3-.4-.2-.7.1-.2.1-.2.2-.2.1-.2.2-.3.4-.3.5.1.4 1.6-.1 1.5m.9-22.7c-.2.5-.6 0-.4-.5s.6.1.4.5m-.3-33.3c-.2.2-.5-.3-.3-.7s.5-.1.4.3c.2-.2.5.3.3.7-.1.4-.4.1-.4-.3m.9 50.2c-.2.5-.6 0-.4-.5s.6.1.4.5m.4-71.3c-.5-.1-.4-1.7.1-1.6s.4 1.7-.1 1.6m.5-17.7c-.2-.3.1-1.1.3-.8s0 1.1-.3.8m-.1-50.3c-.5-.1-.4-1.7.1-1.6.6.2.5 1.7-.1 1.6m1.1 149.7c-.3-.1-.2-1 .1-.9.3 0 .2 1-.1.9m.3-8.8c-.3.8-.9-.1-.6-.9s.9.1.6.9m.3-3.6c-.5-.1-.4-1.7.1-1.6s.4 1.7-.1 1.6m.5-30.5c.3-.8.9.1.6.9s-.9-.1-.6-.9m.1 19.4c.3-.8.9.1.6.9s-.9-.1-.6-.9m1.7 24.5c-.3-.1-.2-1 .1-.9s.2 1-.1.9m-.4-18.8c-1-.2-.7-3.3.3-3.1s.7 3.3-.3 3.1m1.4 17.8c-.3-.1-.2-1 .1-.9.3 0 .2.9-.1.9m.2-47.7c0 .1-.1.2-.2.2 0 .6-.3 1.2-.6.8-.4-.5 0-1.6.4-1.4v-.1c.2-.6.6 0 .4.5m0-64.4c.2-.5.6 0 .4.5-.2.6-.6 0-.4-.5m1.1 110.5c-.3.8-.9-.1-.6-.9s.9.1.6.9m.5-38.4c-.2.5-.6 0-.4-.5.3-.5.6 0 .4.5m-.1-83.8c-.3-.1-.2-1 .1-.9.3 0 .2 1-.1.9m.2-14.3c-.4-.6.1-1.9.5-1.3s-.1 1.9-.5 1.3m.5 70.5c.3-.8.9.1.6.9s-.9-.1-.6-.9m.1 1.7c.3-.8.9.1.6.9s-.9-.1-.6-.9m.4 8.5c.5.1.4 1.7-.1 1.6s-.4-1.7.1-1.6m-.1 20c-.4-.6.1-1.9.5-1.3s-.1 1.9-.5 1.3M619.9 837.2c.1 0 .2.2.2.4 4.9-3.2 10.7-4.9 16.6-4.9h.3l10.5.1c.1-.2.2-.2.3-.2s.2.1.2.2l26.4.3.4 24.7c.1-.1.2-.2.3-.2.5.1.4 1.7-.1 1.6-.1 0-.1 0-.2-.1l2 119.8h.4c0-.3.1-.6.3-.5.2 0 .2.3.2.5 5.3-.3 10.7-.5 16-.6-.4-.9 0-2.8.8-2.6.7.1.8 1.7.4 2.6h1.3c2.4 0 4.8 0 7.1.1 3.8.1 7.6.3 11.4.5-.9-15.9-1.6-30.7-2-44.6-.2-.3-.2-.8 0-1.1-1.1-35.3-.6-64.5 1.3-89.5l.8-10.7h.9c-.2-.3-.2-.8 0-1.2.3-.8.9.3.5 1.1v.1l47.3-1.7v-8.9c-.2-.2-.2-.8 0-1.1V801c-8.8.6-18 1.1-27.6 1.6h-.1c-2.9.1-5.8.2-8.7.4 0 .2 0 .3-.1.5-.2.6-.6.2-.6-.4-16.7.6-34.5 1-53.7 1.1q.15.3 0 .9c-.3.8-.9 0-.6-.8h-7.9c-.1.1-.1.1-.2.1s-.1 0-.1-.1h-6c-12.1 0-24.9-.1-37.9-.3h-1.2v35.1c.4-.3.8-.6 1.3-.9-.5-.6-.4-1-.2-1m126.2-21.6c-.3-.1-.2-1 .1-.9s.2 1-.1.9m16.1-4.4c.2-.5.5.2.3.7s-.5-.2-.3-.7m-1.7 2.7c.5.1.4 1.7-.1 1.6-.6-.1-.5-1.7.1-1.6m-.8 1.2c.5.1.4 1.7-.1 1.6-.5-.2-.4-1.7.1-1.6m-2.5 10.2c-.3.8-.9-.3-.5-1.1.3-.8.8.3.5 1.1m-.9-8.4c.5.1.4 1.7-.1 1.6-.5-.2-.4-1.7.1-1.6m-1.6-10.5c.5.1.4 1.7-.1 1.6-.6-.1-.4-1.7.1-1.6m-.5 14c-.2.5-.5-.2-.3-.7.2-.4.5.2.3.7m-.5-8c.5.1.4 1.7-.1 1.6-.5-.2-.4-1.7.1-1.6m-.6-6.4c.2-.5.5.2.3.7-.1.4-.5-.2-.3-.7m-.3 19.8c.5.1.4 1.7-.1 1.6-.6-.2-.4-1.7.1-1.6m-2.3-16c.3-.8.9.3.5 1.1-.3.8-.8-.3-.5-1.1m-.6 15.3c-.3.6-.7-.3-.4-.9s.7.3.4.9m-.9-16.5c0-.4.2-.7.5-.7.5.1.4 1.5-.1 1.5 0 .4-.2.7-.5.7-.5-.1-.4-1.5.1-1.5m-3.1.8c.3-.8.9.3.5 1.1-.3.8-.9-.3-.5-1.1m-.4 5.6c.3.1.2 1-.1.9-.3 0-.2-1 .1-.9m-1.8 5.9c-.5-.1-.4-1.7.1-1.6.6.2.4 1.7-.1 1.6m-.3-4.4c.2-.5.5.2.3.7s-.5-.2-.3-.7m-.6 1.3c.2-.5.5.2.3.7-.1.5-.5-.2-.3-.7m-1.1-2.7c.5.1.4 1.7-.1 1.6-.6-.1-.5-1.7.1-1.6m-1.1 11.5c-.5-.1-.4-1.7.1-1.6.6.2.4 1.7-.1 1.6m-.3-22.5c.1-.1.1-.2.2-.2-.1-.1-.2-.5-.1-.8.2-.5.5.2.3.7 0 .1 0 .1-.1.1.2.1.4.8.2 1.4-.3.7-.8-.4-.5-1.2m-1.8 16.2c.5.1.4 1.7-.1 1.6-.6-.1-.4-1.7.1-1.6m-1-16.1c.5.1.4 1.7-.1 1.6-.5-.2-.4-1.7.1-1.6m-.5 9c.3-.8.9.3.5 1.1-.3.9-.8-.3-.5-1.1m-2.2 14.5c.4.6-.1 1.9-.5 1.3-.4-.5.1-1.8.5-1.3m-3.6-8.5c.3.1.2 1-.1.9-.3 0-.2-1 .1-.9m-4-7.1c-.3-.1-.2-1 .1-.9.3 0 .2 1-.1.9m0-5.5c.3.1.2 1-.1.9-.3 0-.2-1 .1-.9m-5.6 21.6c.2 0 .2.2.3.4q.15-.3.3-.3c.5.1.4 1.7-.1 1.6-.2 0-.2-.2-.3-.4q-.15.3-.3.3c-.5-.1-.4-1.7.1-1.6m-3.6-10c-.2.5-.5-.2-.3-.7.2-.4.5.3.3.7m-.2-11.5c.3.1.2 1-.1.9-.3 0-.2-1 .1-.9m-2.9 19.4c.5.1.4 1.7-.1 1.6-.6-.2-.4-1.7.1-1.6m-38.3 90.6c-.5-.1-.4-1.7.1-1.6.6.2.4 1.8-.1 1.6m.1-61.5c-1-.2-.7-3.3.3-3.1s.7 3.3-.3 3.1m4.4 70.4c.5.1.4 1.7-.1 1.6-.6-.2-.4-1.7.1-1.6m.5 25.8c-1-.2-.7-3.3.3-3.1s.7 3.3-.3 3.1m.5-27.7c.5.1.4 1.7-.1 1.6-.5-.2-.4-1.7.1-1.6m-.3-.7c-1-.2-.7-3.3.3-3.1s.7 3.3-.3 3.1m1.2 9.9c-.4-.6.1-1.9.5-1.3.5.6 0 1.9-.5 1.3m.1-101.1c-.3-.1-.2-1 .1-.9.3 0 .2 1-.1.9m.4 38c.5.1.4 1.7-.1 1.6-.6-.1-.4-1.7.1-1.6m.3 94c-.5-.1-.4-1.7.1-1.6s.4 1.7-.1 1.6m2.1-10.2c-.4-.6.1-1.9.5-1.3.4.5-.1 1.8-.5 1.3m17.1 23.7c-.3-.1-.2-1 .1-.9.3 0 .2.9-.1.9m1.7-4.3c-.3-.1-.2-1 .1-.9.3 0 .2 1-.1.9m3.2 3.8c-.3.8-.9-.1-.6-.9s.9.1.6.9m0-20.4c.5.1.4 1.7-.1 1.6-.5-.2-.4-1.7.1-1.6m-.3-21.8c.3-.8.9.3.5 1.1-.2.8-.8-.3-.5-1.1m.3 38.3c-.4-.6.1-1.9.5-1.3.4.5-.1 1.8-.5 1.3m3.1-38.7c-.3.8-.9-.1-.6-.9s1 .1.6.9m.3 27c-.4-.6.1-1.9.5-1.3s-.1 1.9-.5 1.3m1.4-126.3c.3-.8.9.3.5 1.1-.3.8-.8-.3-.5-1.1m-.7-30.6c.5.1.4 1.7-.1 1.6s-.4-1.7.1-1.6m-.3 13c.5.1.4 1.7-.1 1.6-.6-.1-.4-1.7.1-1.6m-.6-8.4c.5.1.4 1.7-.1 1.6-.6-.2-.4-1.7.1-1.6m-.4 45.7c.4.6-.1 1.9-.5 1.3s.1-1.9.5-1.3m-1 63.7c.3.1.2 1-.1.9-.3 0-.2-1 .1-.9m-.3 51c.3-.8.9.1.6.9s-1-.1-.6-.9m-.8-67.6c-.3.8-.9-.3-.5-1.1.3-.8.8.3.5 1.1m-.4-61.4c.5.1.4 1.7-.1 1.6-.5-.2-.4-1.7.1-1.6m-.7-5.7c.5.1.4 1.7-.1 1.6-.5-.2-.4-1.7.1-1.6m-2.6 123.9c.5.1.4 1.7-.1 1.6-.6-.1-.5-1.7.1-1.6m-1.1-23.1c1 .2.7 3.3-.3 3.1s-.7-3.3.3-3.1m-.5-28.6c.5.1.4 1.7-.1 1.6-.6-.2-.4-1.8.1-1.6m-.6 66.5c1 .2.7 3.3-.3 3.1-1.1-.2-.8-3.3.3-3.1m-.6-72c.4.6-.1 1.9-.5 1.3s.1-1.9.5-1.3m-.8-10.1c.5.1.4 1.7-.1 1.6s-.4-1.7.1-1.6m-.7-70.6c.5.1.4 1.7-.1 1.6-.6-.2-.4-1.7.1-1.6m-.2 12.2c.5.1.4 1.7-.1 1.6-.6-.1-.4-1.7.1-1.6m.1 16.9c1 .2.7 3.3-.3 3.1s-.7-3.3.3-3.1m-2 61.2c.5.1.4 1.7-.1 1.6-.6-.2-.4-1.8.1-1.6m-2.9-64c.3-.8.9.3.5 1.1-.3.8-.8-.3-.5-1.1m-.7 106c.5.1.4 1.7-.1 1.6-.5-.2-.4-1.7.1-1.6m-.8-142.8c.5.1.4 1.7-.1 1.6-.6-.2-.4-1.7.1-1.6m-1.4 159.4c.5.1.4 1.7-.1 1.6-.6-.2-.4-1.7.1-1.6M691.3 855c.5.1.4 1.7-.1 1.6-.6-.2-.4-1.7.1-1.6m-1.2 89.7c-.3-.1-.2-1 .1-.9.3 0 .2 1-.1.9m-.4-76.7c-.5-.1-.4-1.7.1-1.6.5.2.4 1.7-.1 1.6m.2-35.9c-.3.8-.9-.3-.5-1.1.3-.9.8.3.5 1.1m-.5-20.6c.3.1.2 1-.1.9s-.2-1 .1-.9m-1 157.6c-.7 1.6-1.9-.2-1.2-1.8.7-1.7 1.9.1 1.2 1.8m-.2-118c.4.6-.1 1.9-.5 1.3s.1-1.8.5-1.3m-.1 4.8c-.3.8-.9-.1-.6-.9s1 .1.6.9m-.9-31c.5.1.4 1.7-.1 1.6-.6-.1-.5-1.7.1-1.6m-.6 88.5c.3-.8.9.3.5 1.1-.3.8-.8-.3-.5-1.1m-.4-69.2c.5.1.4 1.7-.1 1.6-.6-.2-.4-1.7.1-1.6m-.1 82.8s-.1 0-.1-.1c-.4-.6.1-1.9.5-1.3.3.3.2 1 0 1.3h.1c1 .2.7 3.3-.3 3.1-.9-.2-.8-2.4-.2-3m-.4 29.2c.4.6-.1 1.9-.5 1.3s.1-1.9.5-1.3m-2-127.7c.2 0 .2.2.3.4q.15-.3.3-.3c.5.1.4 1.7-.1 1.6-.2 0-.2-.2-.3-.4q-.15.3-.3.3c-.5-.1-.4-1.7.1-1.6m-.6-10.6c.5.1.4 1.7-.1 1.6-.6-.2-.4-1.7.1-1.6m-.8 70.7c.5.1.4 1.7-.1 1.6-.6-.2-.4-1.7.1-1.6m-.5-31.5c.3.1.2 1-.1.9s-.2-1 .1-.9m-.4-23.7c.3.1.2 1-.1.9-.3 0-.2-1 .1-.9m-.6 15.1c.3.1.2 1-.1.9-.2-.1-.2-1 .1-.9m-1 60.4c-.4-.6.1-1.9.5-1.3s-.1 1.9-.5 1.3m.4-7.3c.2.3-.1 1.1-.3.8s.1-1.1.3-.8m-.3-94.6c.3.1.2 1-.1.9s-.2-1 .1-.9m-.1 11c-.3.8-.9-.1-.6-.9s.9.1.6.9m-.6-12c.5.1.4 1.7-.1 1.6s-.4-1.7.1-1.6m-.3 73.4c.4.6-.1 1.9-.5 1.3-.4-.5.1-1.8.5-1.3m-.4 65.6c.3.1.2 1-.1.9s-.2-1 .1-.9m-.5-82.3c-.3.8-.9-.3-.5-1.1.3-.8.8.3.5 1.1m-.5-33.3c.5.1.4 1.7-.1 1.6-.5-.2-.4-1.7.1-1.6m-.6 18.4c.5.1.4 1.7-.1 1.6-.6-.1-.4-1.7.1-1.6m-.4-18.6c.5.1.4 1.7-.1 1.6-.6-.2-.5-1.7.1-1.6m-2.4-24.6c.5.1.4 1.7-.1 1.6s-.4-1.7.1-1.6m-.3 13c.5.1.4 1.7-.1 1.6-.6-.1-.4-1.7.1-1.6m-6.6-7c.4.6-.1 1.9-.5 1.3-.4-.5.1-1.8.5-1.3m-2.5 11.4c.3.1.2 1-.1.9-.3 0-.3-.9.1-.9m-9.7-13.9c.4.6-.1 1.9-.5 1.3-.4-.5.1-1.8.5-1.3m-1 11.3c.3-.6.7-.2.7.3.4.3.2 1.6-.2 1.5-.2 0-.3-.3-.3-.7-.3-.2-.4-.7-.2-1.1m-3.1 3.6c.3-.8.9.1.6.9s-.9-.1-.6-.9m-1.7 2.2c.5.1.4 1.7-.1 1.6s-.4-1.7.1-1.6m-1.7-9.4c.2-.5.6 0 .4.5-.3.6-.6 0-.4-.5m-2.3-6.2c.3.1.2 1-.1.9-.3 0-.2-1 .1-.9m-1.7 4.3c.3.1.2 1-.1.9s-.2-1 .1-.9m-2.2-7.6c.5.1.4 1.7-.1 1.6s-.4-1.7.1-1.6m-3 5.8c.8 1.1-.2 3.7-1 2.6s.2-3.7 1-2.6m-.8 3.5c.4.6-.1 1.9-.5 1.3-.4-.5.1-1.8.5-1.3m-1.4.8c.4.6-.1 1.9-.5 1.3-.4-.5.1-1.8.5-1.3m-1.1-3.3c1 .2.7 3.3-.3 3.1s-.8-3.3.3-3.1m-1-2.8c.2-.5.6 0 .4.5s-.6 0-.4-.5m-3 8.1c.2-.5.6 0 .4.5s-.6 0-.4-.5m-.8-5c.2-.5.6 0 .4.5-.3.5-.6-.1-.4-.5m-4.9 15.7c.3.1.2 1-.1.9-.2 0-.2-1 .1-.9m.1 4.6c.2.3-.1 1.1-.3.8s.1-1.1.3-.8m-2.7-8.6c.3-.8.9.1.6.9s-1-.1-.6-.9m-3 6.5c-.2-.4-.1-1.4.4-1.3.4.1.4 1.1.1 1.4.2.4.1 1.4-.4 1.3-.4-.1-.4-1.1-.1-1.4M1233.3 890.1l.1-.1-.1-.1zM1577.9 970.6c.3.1.4.4.4.8 20.5-13 35.7-28.9 45.5-47.2-13.5-19.5-31-38-54.6-57.8l-8.4-7.1 4.6-10c6.7-14.5 22.5-20.8 38.4-23.6-3-7.9-5.8-16.8-8.5-26.3-7.5 6.5-16.9 13.4-28.3 20.7-.1 0-.1.1-.2.1 0 .6-.2 1.2-.5 1.2-.2 0-.3-.3-.4-.6-25.7 16.3-35.8 30.1-39.6 37.4l18.3 19.1c-.1-1.2.3-2.7 1.1-2.5 1.1.2 1 3.2.1 3.7l31.4 32.8c-.1-.3 0-1 .3-.9.4.1.3 1.2-.1 1.1l10.2 10.6-7.7 9.8c-10.4 13.3-21.4 22.5-33.2 27.5 7.4 6.7 12.3 14.4 15.5 21.2 5.4-2.7 10.4-5.6 15.3-8.6-.2-.6 0-1.5.4-1.4m42.5-50.4c.3.1.3.9 0 1.1.2.3.1 1.1-.2 1s-.3-.9 0-1.1c-.2-.2-.1-1.1.2-1m-12.4-12.7c.6.1.4 2-.2 1.9s-.4-2 .2-1.9m-14.1-94.8c.4.1.3 1.2-.1 1.1-.4 0-.2-1.2.1-1.1m-2.5-9.2c.4.1.3 1.2-.1 1.1s-.3-1.2.1-1.1m-1.7 18.1c.4.1.3 1.2-.1 1.1s-.3-1.2.1-1.1m-.8-14.5c.4.1.3 1.2-.1 1.1-.3-.1-.2-1.2.1-1.1m-21.3 27.5c.6.1.4 2-.2 1.9s-.4-2 .2-1.9m-4.7 17.7c.5.1.4 1.6-.1 1.5-.6-.1-.4-1.6.1-1.5m-.5-17.9c.4.1.3 1.2-.1 1.1-.4 0-.3-1.2.1-1.1m-.9-.9c.6.1.4 2-.2 1.9s-.4-2 .2-1.9m-29.3 22.9c-.6-.1-.4-2 .2-1.9.6.2.4 2-.2 1.9m1.9-3.1c-.3-.4.1-1.4.4-.9.2.3-.1 1.3-.4.9m2.5-4.1c-.4 1-1.2-.1-.8-1.1.5-1 1.2.1.8 1.1m9.3 15.7c-.5-.7.1-2.3.6-1.6s-.1 2.3-.6 1.6m4.9-30c-.4-.1-.3-1.2.1-1.1s.3 1.2-.1 1.1m.5 12.1c-.6-.1-.4-2 .2-1.9.6.2.4 2-.2 1.9m.6 6.5c-.6-.1-.4-2 .2-1.9.5.1.4 2-.2 1.9m5.8-18.8c-.4 1-1.2-.1-.8-1.1s1.2.1.8 1.1m-.5-4.3c-.5-.7.1-2.3.6-1.6s-.1 2.3-.6 1.6m1.3 29.4c-.6-.1-.4-2 .2-1.9s.4 2-.2 1.9m1-10.4c-.6-.1-.4-2 .2-1.9s.5 2-.2 1.9m8.1 19.4c-.6-.1-.4-2 .2-1.9.6.2.4 2.1-.2 1.9m4.8 27.3c-.4-.1-.3-1.2.1-1.1.4 0 .3 1.2-.1 1.1m3.6 2.3c-.6-.1-.4-2 .2-1.9.6.2.4 2.1-.2 1.9m8.9-4.5c-.6-.1-.4-2 .2-1.9.6.2.4 2.1-.2 1.9m14.6 46.1c-.6-.1-.4-2 .2-1.9.6.2.5 2-.2 1.9m.1-43.4c.6.1.4 2-.2 1.9-.6-.2-.4-2.1.2-1.9m-2 56.5c.6.1.4 2-.2 1.9-.6-.2-.5-2.1.2-1.9m-1.9-48.2c.4.1.3 1.2-.1 1.1s-.3-1.2.1-1.1m-.8.3c.4.1.3 1.2-.1 1.1-.4 0-.3-1.2.1-1.1m0 25.8c.6.1.4 2-.2 1.9-.6-.2-.4-2.1.2-1.9m-1.5 7.6c.5.1.4 1.6-.1 1.5s-.4-1.6.1-1.5m-.6-28c.6.1.4 2-.2 1.9-.6-.2-.4-2.1.2-1.9m-.3 29.1c.6.1.4 2-.2 1.9s-.4-2 .2-1.9m-.3 3.2c.5.1.4 1.6-.1 1.5s-.4-1.6.1-1.5m-.2 2.9c.6.1.4 2-.2 1.9-.6-.2-.5-2.1.2-1.9m-1.8-40.4c.6.1.4 2-.2 1.9-.6-.2-.5-2 .2-1.9m-1.1 12.1c.6.1.4 2-.2 1.9-.6-.2-.5-2.1.2-1.9m-.3 22.9c.4.1.3 1.2-.1 1.1s-.3-1.2.1-1.1m-2.6 10.7c.4.1.3 1.2-.1 1.1-.3 0-.2-1.2.1-1.1m-24.1 6.9c-.6-.1-.4-2 .2-1.9s.4 2-.2 1.9m8.5-10.3c-.5-.1-.4-1.6.1-1.5s.4 1.6-.1 1.5M1097.7 970.8c.1.2.1.4.1.6 14.7-5.3 27.4-12.9 38.6-23-.1-1 .3-2.2 1-2 .3.1.4.3.6.6 2.5-2.4 5-4.9 7.4-7.5-5.7-13.7-15.7-26.4-30.5-38.7l-11.3-9.4 10.9-9.8c.1-.1.3-.3.5-.4 0-.4.2-.9.5-.8.1 0 .2.1.2.2 9.2-8.4 19.4-18.4 25.8-29 .1-.3.2-.5.3-.5.7-1.1 1.3-2.3 1.9-3.4-.2-.2-.3-.7-.1-1.2.2-.6.6-.4.7 0 .7-1.5 1.3-3 1.9-4.5-12.3-18.1-30.7-30.1-56.2-36.6-.1.3-.4.5-.6.2-.1-.1-.1-.2-.1-.4-.3-.1-.5-.1-.8-.2v.1c.4.6-.1 2-.5 1.4-.3-.5-.1-1.3.2-1.5-.3-.1-.6-.1-.8-.2-.1.1-.2.1-.4.1s-.3-.1-.4-.3c-6.5-1.5-13.4-2.6-20.8-3.5-.1.2-.2.3-.4.2-.1 0-.2-.2-.3-.3-7.2-.8-14.7-1.2-22.8-1.4-2-.1-4.1-.1-6.4-.1h-3.6c0 .4-.2.8-.4.6-.1-.1-.1-.4-.1-.6h-1.8c.1.5-.1 1.2-.5 1.1-.3-.1-.4-.6-.3-1.1-3 .1-6 .1-9.1.3 5.4 13.5 7.5 31.3 8.3 51.5.2.1.4.7.2 1.3 0 .1-.1.2-.1.2.3 8 .3 16.3.3 24.9.1.3.1.7 0 .9 0 5.3-.1 10.7-.1 16.2.3.1.4.7.2 1.3-.1.2-.1.3-.2.3v2.8c-.3 23.9-1.7 43.1-4.4 58.4 0 .2 0 .5-.1.8 0 .1-.1.1-.1.2-.3 1.7-.6 3.3-.9 4.9-1.3 6.2-2.8 11.7-4.6 16.5 6.7.4 13 .6 19.2.6 2 0 4.1 0 6.4-.1h.2c6.3-.2 12.3-.6 18.1-1.2.1-.3.2-.5.4-.3.1.1.1.2.1.3 12.6-1.4 24.2-4 34.7-7.7-.5-.5-.2-1.2 0-.8M1140 931c.5.1.4 1.8-.2 1.7-.5-.2-.4-1.8.2-1.7m-6.3 11.7c.3.1.2 1.1-.1 1s-.2-1.1.1-1m-2-1.6c1.1.2.8 3.6-.3 3.3-1.1-.2-.8-3.6.3-3.3m-1.5-22.2c.4.6-.1 2-.5 1.4-.5-.6.1-2 .5-1.4m-3.3 12.9c.3.4-.1 1.2-.3.8-.3-.3.1-1.1.3-.8m17.2-89.7c.4.6-.1 2-.5 1.4s.1-2 .5-1.4m-2.9-1.2c.3.1.2 1.1-.1 1s-.2-1.1.1-1m-18 22.7c-.3-.4.1-1.2.3-.8.3.3 0 1.2-.3.8m11.5-23.3c.3.1.2 1.1-.1 1-.4-.1-.3-1.1.1-1m-2.7-1.8c.5.1.4 1.8-.2 1.7-.5-.1-.4-1.8.2-1.7m0 4.6c.5.1.7 1 .7 1.8.3.2.2 1-.1 1h-.1c-.2.4-.4.7-.8.6-1.1-.3-.8-3.6.3-3.4m-1.9 5.9c.5.1.4 1.8-.2 1.7-.5-.2-.3-1.8.2-1.7m-1-9.5c.1.1.1.2.1.3 0-.1.1-.1.2-.1.3.1.2 1.1-.1 1-.1 0-.1-.1-.1-.1-.1.4-.4.7-.6.3-.5-.6.1-2 .5-1.4m-4.3 19.7q0-.15 0 0c.4-1 1 0 .7.9q-.15.3-.3.3c-.1.3-.2.5-.4.4-.6-.1-.5-1.5 0-1.6m-1.2-31.3c.3.4-.1 1.2-.3.8-.3-.3.1-1.2.3-.8m-.3 15.2c1.1.2.8 3.6-.3 3.3-1.1-.2-.8-3.5.3-3.3m-2.8 8.8c.5.1.4 1.8-.2 1.7-.5-.1-.4-1.8.2-1.7m-.7 14.8c.5.1.4 1.8-.2 1.7-.5-.1-.3-1.8.2-1.7m-2.4-9.4c.4.6-.1 2-.5 1.4-.5-.7 0-2 .5-1.4m-1.4-32.5c.3.1.4.8.3 1.2 0 .3-.2.6-.4.4h-.1c-.5 0-.3-1.7.2-1.6m-92.5-15.6c-.5-.1-.4-1.8.2-1.7.5.2.3 1.8-.2 1.7m1.8-2.7c-.1 0-.2-.2-.3-.4-.3.7-.8-.1-.5-.8.2-.4.4-.3.5 0 .1-.3.2-.5.4-.5.6.2.4 1.8-.1 1.7m-.5 151.9c-.2.5-.6 0-.4-.6.3-.5.7.1.4.6m77.1-16.8c-.2.5-.6 0-.4-.6.2-.5.6.1.4.6m11.9 10.6c-.5-.1-.4-1.8.2-1.7.5.1.3 1.8-.2 1.7m8.4-27.4c.4.6-.1 2-.5 1.4s0-2 .5-1.4m-1-1.2c.4.6-.1 2-.5 1.4s.1-2 .5-1.4m-2.9-15.6c.5.1.4 1.8-.2 1.7-.5-.1-.4-1.8.2-1.7m-1.5 34.4c.4.6-.1 2-.5 1.4s.1-2 .5-1.4m-.5-7.3c.5.1.4 1.8-.2 1.7-.5-.1-.3-1.8.2-1.7m-.5 11.5c.9 1.2-.2 4-1.1 2.8s.2-4 1.1-2.8m-1.4-28.1c.5.1.4 1.8-.2 1.7-.2 0-.3-.2-.3-.4-.1.2-.2.3-.4.3-.5-.1-.4-1.8.2-1.7.2 0 .3.2.3.4.1-.2.2-.4.4-.3m-1.2-15.7c.4-.9 1 .1.7 1-.4.8-1-.2-.7-1m-.5 47.5c.4.6-.1 2-.5 1.4-.5-.6.1-2 .5-1.4m-.4-45.3c.3.4-.1 1.2-.3.8-.2-.3.1-1.1.3-.8m-.7 44c.3.1.2 1.1-.1 1s-.2-1.1.1-1m-.4-25.4c.3.1.2 1.1-.1 1-.4-.1-.3-1.1.1-1m-.6 16.1c.3.1.2 1.1-.1 1-.3 0-.2-1 .1-1m-1.7-27.8c.3.1.2 1.1-.1 1s-.2-1.1.1-1m-.9 22.4c.3.1.2 1.1-.1 1s-.2-1.1.1-1m.3 4.4c.9 1.2-.2 4-1.1 2.8-.8-1.3.2-4 1.1-2.8m-1.5-3.2c.5.1.4 1.8-.2 1.7-.5-.2-.4-1.8.2-1.7m-3-42.7c.4.5 0 1.6-.4 1.5-.1 0-.1.1-.2 0-.5-.1-.4-1.8.2-1.7.1 0 .2 0 .4.2m-.9 15.5c-.5-.1-.4-1.8.2-1.7.5.2.3 1.8-.2 1.7m1.5-42.1c.3.1.2 1.1-.1 1s-.2-1.1.1-1m.1 21.3c-.3-.1-.2-1.1.1-1s.2 1.1-.1 1m-.3-24.7c-.4-.6.1-2 .5-1.4.5.6 0 2-.5 1.4m9.6 1.3c-.3-.1-.2-1.1.1-1s.3 1.1-.1 1m1.1-2.1c.3.1.2 1.1-.1 1s-.2-1.1.1-1m-1.2-21.3c1.1.2.8 3.6-.3 3.3-1.1-.2-.8-3.6.3-3.3m-3 22.3c-.3-.1-.2-1.1.1-1s.2 1.1-.1 1m-.6-11.4c.4-.9 1 .1.7 1-.4.9-1-.1-.7-1m-1.2 15.2c.5.1.4 1.8-.2 1.7-.5-.2-.4-1.8.2-1.7m-.6-1.5c.5.1.4 1.8-.2 1.7-.5-.2-.3-1.8.2-1.7m-1.1-8.9c.5.1.4 1.8-.2 1.7-.5-.1-.4-1.8.2-1.7m-.7-19.7c.9 1.2-.2 4-1.1 2.8s.2-4 1.1-2.8m-2.4-24.8c.4-.9 1 .1.7 1-.4.9-1-.1-.7-1m-1.6 15c.2-.5.6 0 .4.6-.2.5-.6-.1-.4-.6m.5 9.7c.5.1.4 1.8-.2 1.7-.5-.2-.4-1.8.2-1.7m-2.2-14.4c.5.1.4 1.8-.2 1.7-.5-.2-.4-1.8.2-1.7m-7.2 6.6c.5.1.4 1.8-.2 1.7-.5-.2-.4-1.8.2-1.7m-1.8 2.9c.3.4-.1 1.2-.3.8s.1-1.2.3-.8m-9-24.8c.2-.5.6 0 .4.6s-.6 0-.4-.6m-3 17.6c.3.1.2 1.1-.1 1-.3 0-.2-1 .1-1m-.2 2.4c.5.1.4 1.8-.2 1.7-.5-.2-.3-1.9.2-1.7m-2.9-8.4c.3.1.2 1.1-.1 1s-.2-1.1.1-1m.1 4.9c.3.4-.1 1.2-.3.8-.3-.3 0-1.2.3-.8m-.1 1.7c.4.6-.1 2-.5 1.4-.5-.6 0-2 .5-1.4m-2.9-11c.4-.9 1 .1.7 1-.4.9-1-.1-.7-1m-2.8 5.6c.4.1.4 1.2.1 1.5.2.5.1 1.5-.4 1.4-.4-.1-.4-1.2-.1-1.5-.2-.5 0-1.5.4-1.4m-.3 8.5c-.3-.1-.2-1.1.1-1s.3 1.1-.1 1m-1.9-24c.3.1.2 1.1-.1 1s-.2-1.1.1-1m-1.2 4.3c.3.4-.1 1.2-.3.8-.3-.3 0-1.2.3-.8m-1.2 6.9c.3.1.2 1.1-.1 1-.4 0-.3-1 .1-1m-.3 14c-.3.7-.8-.1-.5-.8.3-.6.8.1.5.8m-.6-25c.3.1.2 1.1-.1 1s-.2-1.1.1-1m-.2 15.7c.4-.9 1 .1.7 1-.4.9-1.1-.1-.7-1m-1.5 6.9c.3.4-.1 1.2-.3.8-.3-.3 0-1.1.3-.8m-5-18c.4.6-.1 2-.5 1.4s.1-2 .5-1.4m-.9-4.2c.5.1.4 1.8-.2 1.7-.5-.2-.3-1.8.2-1.7m-.3 10.6c.3.1.2 1.1-.1 1-.3 0-.2-1 .1-1m-1 8c-.4-.6.1-2 .5-1.4.5.6 0 2-.5 1.4m.6-6.5c.3.4-.1 1.2-.3.8-.3-.4.1-1.2.3-.8m-.5-13.7c.5.1.4 1.8-.2 1.7-.5-.2-.4-1.9.2-1.7m-2.5 26.6c.4.6-.1 2-.5 1.4-.5-.6.1-2 .5-1.4m-.3-20.8c.4.6-.1 2-.5 1.4-.5-.6 0-2 .5-1.4m-3.2 38.5c-.4-.6.1-2 .5-1.4.5.6 0 2-.5 1.4m-.6 39.2c.2-.5.6 0 .4.6-.3.6-.7 0-.4-.6m-.5-20.9c-.5-.1-.4-1.8.2-1.7.5.1.3 1.8-.2 1.7m.5-21.6c-.5-.1-.4-1.8.2-1.7.5.1.4 1.8-.2 1.7m.8-8.3c.5.1.4 1.8-.2 1.7-.5-.2-.3-1.8.2-1.7m-.9-5.6c.5.1.4 1.8-.2 1.7-.5-.2-.3-1.8.2-1.7m-.3 9c.3.4-.1 1.2-.3.8-.3-.3.1-1.1.3-.8m-1.2-22.9c.5.1.4 1.8-.2 1.7-.5-.1-.3-1.8.2-1.7m-.1 76c-.1.3-.3.2-.4 0-.1.1-.2.1-.4-.1-.4-.6.1-2 .5-1.4.1.2.2.4.2.7.2.2.2.5.1.8m-.3-24.9c-.4-.6.1-2 .5-1.4s-.1 2-.5 1.4m.1-25.7c.3.4-.1 1.2-.3.8-.2-.3.1-1.2.3-.8m-.6-32.8c-.3-.1-.2-1.1.1-1 .3 0 .2 1-.1 1m-.3-9.1c.5.1.4 1.8-.2 1.7-.5-.2-.4-1.8.2-1.7m-.8 71.8c.4.6-.1 2-.5 1.4-.5-.6 0-2 .5-1.4m-1.4-11.6c-.3-.4-.1-1.2.1-1.5 0-.2 0-.4.1-.6.4-.9 1 .1.7 1-.1.2-.1.2-.2.3 0 .6-.4 1.2-.7.8m2 29.4c.4.6-.1 2-.5 1.4-.5-.6.1-2 .5-1.4m-.7-57.3c.5.1.4 1.8-.2 1.7-.5-.1-.3-1.8.2-1.7m-.5 5.4c.5.1.4 1.8-.2 1.7-.5-.2-.3-1.9.2-1.7m-.4-25.6c.3.1.2 1.1-.1 1-.3 0-.2-1 .1-1m-.7 37.9c-.5-.1-.4-1.8.2-1.7.5.1.3 1.8-.2 1.7m0-34.5c.2.2.2.5.1.8s-.3.5-.5.3c-.4-.5.1-1.6.4-1.1m0 6.5c.4.6-.1 2-.5 1.4-.5-.6 0-2 .5-1.4m-.8 5.5c.2-.5.6 0 .4.6-.2.5-.6 0-.4-.6m-1.1 47.9c.5.1.4 1.8-.2 1.7-.5-.1-.3-1.8.2-1.7m-1.5-73.6c.5.1.4 1.8-.2 1.7-.5-.1-.3-1.8.2-1.7m0 34.9c-.3-.1-.3-.8 0-1-.2-.2-.1-1 .2-.9s.3.8 0 1c.2.3.1 1-.2.9m.3 33.4c-.2.5-.6 0-.4-.6.2-.5.6.1.4.6m-1.2-12.7c-.1-.4.2-1 .4-.7s0 1-.2.9c.1.4-.2 1-.4.7s0-1 .2-.9m-.3 35.1c-.4-.6.1-2 .5-1.4.5.6 0 2-.5 1.4m.3-20.4c.4.6-.1 2-.5 1.4s.1-2 .5-1.4m-.6-24.3c.4.5-.1 1.6-.4 1.1-.1-.2-.1-.4-.1-.6-.4.4-.8-.4-.5-1.2s.9-.1.7.7q.15-.3.3 0m-.7-35.1c.4.6-.1 2-.5 1.4s.1-2 .5-1.4m-1.1 5.2c.4.6-.1 2-.5 1.4-.5-.6 0-2 .5-1.4m-2.6 6.7c.4.6-.1 2-.5 1.4s.1-2 .5-1.4m-.3 41.9c.4.6-.1 2-.5 1.4s.1-2 .5-1.4m-1.1-43.1c-.5-.1-.4-1.8.2-1.7.5.1.3 1.8-.2 1.7m1 42.2c-.5-.1-.4-1.8.2-1.7.5.1.3 1.8-.2 1.7m-.1-45.1c.5.1.4 1.8-.2 1.7-.5-.1-.3-1.8.2-1.7m-.6-5.9c.4.6-.1 2-.5 1.4-.5-.6.1-2 .5-1.4m-.1 21.9c.4.6-.1 2-.5 1.4-.5-.6.1-2 .5-1.4m-.3 48.4c-.4.9-1-.1-.7-1 .4-.8 1.1.1.7 1m-1.1-10.3c.4-.9 1 .1.7 1-.4.9-1.1-.1-.7-1m-.5-10c.3.1.2 1.1-.1 1s-.2-1.1.1-1m.1 13.4c.4.6-.1 2-.5 1.4-.5-.6.1-2 .5-1.4m-1-43c.5.1.4 1.8-.2 1.7-.5-.1-.4-1.8.2-1.7m-.4 14.6c.4-.9 1 .1.7 1-.4.9-1.1-.1-.7-1m.4 30.3c-.3-.1-.2-1.1.1-1 .3 0 .2 1-.1 1m-.9-56.2c.5.1.4 1.8-.2 1.7-.5-.2-.3-1.9.2-1.7m-.3-2.8c.4.6-.1 2-.5 1.4-.4-.7.1-2 .5-1.4m-.7-16.4c.5.1.4 1.8-.2 1.7-.5-.2-.3-1.8.2-1.7m-.9 9.6c-.5-.1-.4-1.8.2-1.7.5.2.4 1.8-.2 1.7m.6 45c-.2.5-.6 0-.4-.6.2-.5.6.1.4.6m.2-1.4c-.2.5-.6 0-.4-.6.2-.5.6.1.4.6m.6 62.4c-.2.5-.6 0-.4-.6.2-.5.6.1.4.6m-.1-53c.4-.9 1 .1.7 1-.4.8-1-.2-.7-1m.8 14.9c.4-.9 1 .1.7 1-.4.8-1.1-.1-.7-1m1.1 14.7c-.1.4-.2.7-.5.6-.5-.1-.4-1.4 0-1.6 0-.2 0-.4.1-.6.2-.4.4-.3.5 0 .1 0 .1 0 .2.1.4.5.1 1.6-.3 1.5m1.4 83.3c-.4.9-1-.1-.7-1 .4-.9 1.1.1.7 1m.1-40.1c-.2.5-.6 0-.4-.6.2-.5.6.1.4.6m.6-17c-.4.9-1-.1-.7-1 .4-.9 1 .1.7 1m.5-9.7c-.4.9-1-.1-.7-1 .4-.8 1 .1.7 1m.8-44.8c.4.6-.1 2-.5 1.4s.1-2 .5-1.4m-.1 10.8c-.5-.1-.4-1.8.2-1.7.5.1.4 1.8-.2 1.7m.8-49.5c-.2.5-.6 0-.4-.6.2-.5.6 0 .4.6m.6-26.2c-.5-.1-.4-1.8.2-1.7.5.2.3 1.8-.2 1.7m.6 99.1c-.5-.1-.4-1.8.2-1.7.5.2.4 1.8-.2 1.7m.1-63.2c-.4-.6.1-2 .5-1.4.5.6 0 2-.5 1.4m1.2-11.2c.4.1.3 1.4-.1 1.3-.5-.1-.3-1.4.1-1.3m.3 9.4c.4.6-.1 2-.5 1.4s.1-2 .5-1.4m-.1 10.8c.5.1.4 1.8-.2 1.7-.5-.2-.3-1.8.2-1.7m.1 13.9c-.5-.1-.4-1.8.2-1.7.5.1.4 1.8-.2 1.7m.3-10.8c-.5-.1-.4-1.8.2-1.7.5.2.4 1.8-.2 1.7m.8 66.6c-.5-.1-.4-1.8.2-1.7.5.2.4 1.8-.2 1.7m.1-14.1c-.4-.6.1-2 .5-1.4s-.1 2-.5 1.4m1 12.5c-.5-.1-.4-1.8.2-1.7.5.2.4 1.8-.2 1.7m.7-23.8c-.3-.7.2-1.8.6-1.2.2.3.2.7.1 1.1.1.3.2.6 0 1-.4.8-1-.1-.7-.9m.4 12.2c-.3-.5.1-1.6.4-1.1s-.1 1.6-.4 1.1m.2 36.4c.2-.5.6 0 .4.6-.2.5-.6-.1-.4-.6m.5 7.2c-.4-.6.1-2 .5-1.4.5.6-.1 2-.5 1.4m.6-83.9c-.4-.6.1-2 .5-1.4.5.6-.1 2-.5 1.4m.2 36c.3-.7.8.1.5.8-.2.6-.8-.1-.5-.8m.9 63.4c-.2.5-.6 0-.4-.6s.6.1.4.6m-.1-25.5c-.3-.4.1-1.2.3-.8.3.3 0 1.1-.3.8m.4 11.9c-.3-.4.1-1.2.3-.8.3.3 0 1.1-.3.8m.3 18c-.3-.5.1-1.6.4-1.1.4.5 0 1.6-.4 1.1m.8-9.4c-1.1-.2-.8-3.6.3-3.3 1.1.2.8 3.6-.3 3.3m.7-38.6c-.5-.1-.4-1.8.2-1.7.5.1.4 1.8-.2 1.7m.7 4.4c.4-.9 1 .1.7 1-.4.9-1.1-.1-.7-1m1.1 6.9c.5.1.4 1.8-.2 1.7-.5-.1-.4-1.8.2-1.7m.4 29.8c-.4.9-1-.1-.7-1 .4-.8 1.1.2.7 1m-.1-99.8c-.4-.6.1-2 .5-1.4s-.1 2-.5 1.4m.9 72.8c-.2.5-.6 0-.4-.6.2-.5.6.1.4.6m.1-40.2c.4-.9 1 .1.7 1-.4.9-1.1-.1-.7-1m.6 44.7c-.4-.6.1-2 .5-1.4s-.1 2-.5 1.4m.1-34.2c-.4-.6.1-2 .5-1.4.5.6-.1 2-.5 1.4m.6-40c-.5-.1-.4-1.8.2-1.7.5.2.4 1.8-.2 1.7m.5-19.5c.1-.3.3-.2.4-.1v-13.7l5.4.2c-.2-.2-.3-.7-.1-1.2.4-.9 1 .1.7 1 0 .1-.1.2-.1.2l7.3.3c5.3.2 10 .9 14.2 2 .1-.1.1-.1.2-.1s.2.1.2.2c.9.3 1.8.5 2.7.8 6.3 2.2 11.6 5.7 15.7 10.4l3.3 3.7c.2-.2.4.1.4.4l5.3 6.1-10.8 8.2c-2.6 2-5.4 3.7-8.3 5.2-.1 1.1-.8 2-1.4 1.2-.1-.1-.1-.3-.2-.4-1.1.5-2.3 1.1-3.5 1.5-2.6 1-5.3 1.9-8.1 2.6.1.4-.1 1-.4.7-.1-.2-.1-.4-.1-.6-2.8.6-5.6 1.1-8.5 1.4l-13.8 1.3v-.9c-.2-.3-.2-1 0-1.4v-28.5c-.3.6-.7 0-.5-.5m50.4 30.3c-.4.9-1-.1-.7-1 .4-.9 1.1.1.7 1m-1.1-10.4c.5.1.4 1.8-.2 1.7-.5-.2-.4-1.8.2-1.7m-.8-2.2c.2-.5.6 0 .4.6-.3.5-.7-.1-.4-.6m-2.5 11.7c-.3-.4.1-1.2.3-.8.3.3 0 1.2-.3.8m-1.5 34.6c-.5-.1-.4-1.8.2-1.7.5.2.4 1.8-.2 1.7m-1.1-32c-.3-.4.1-1.2.3-.8.2.3-.1 1.1-.3.8m-1.2 23.1c-.4-.6.1-2 .5-1.4.5.6 0 2-.5 1.4m-2.1-25.9c-.5-.1-.4-1.8.2-1.7.5.1.4 1.8-.2 1.7m.2 31.9c-.4.9-1-.1-.7-1 .4-.8 1.1.2.7 1m-4.1-2c-1.1-.2-.8-3.6.3-3.3.2 0 .4.2.5.5 0-.1 0-.3.1-.4.2-.5.6 0 .4.6-.1.3-.3.2-.4.1.3 1-.1 2.6-.9 2.5m-.6-11.2c.4-.9 1 .1.7 1-.4.9-1.1-.1-.7-1m.3-20.4c.5.1.4 1.8-.2 1.7s-.4-1.8.2-1.7m1.7-2c-.2.5-.6 0-.4-.6.2-.5.6 0 .4.6m-4.3 19.1c-.2.5-.6 0-.4-.6.2-.5.6.1.4.6m-2.3.1c-.2.5-.6 0-.4-.6.2-.5.6.1.4.6m-1.8-2.6c.2-.5.6 0 .4.6-.2.5-.6-.1-.4-.6m.2 10.7c-.2.5-.6 0-.4-.6.2-.5.6.1.4.6m-3-13.5c-.2.5-.6 0-.4-.6.2-.5.6.1.4.6m-2.3-1.6c-.3-.4.1-1.2.3-.8.2.3-.1 1.1-.3.8m-1 2.5c-.4-.6.1-2 .5-1.4.5.6-.1 2-.5 1.4m-1.7 5.9c-.3-.5.1-1.6.4-1.1.4.5 0 1.6-.4 1.1m-1.6-1.5c.2-.5.6 0 .4.6-.3.5-.7-.1-.4-.6m-.3-5c.2-.5.6 0 .4.6-.2.5-.6 0-.4-.6m.8 10.8c.3.4-.1 1.2-.3.8-.3-.3 0-1.1.3-.8m-1.7 3.5c.4-.9 1 .1.7 1-.4.8-1-.1-.7-1m.1-4.6c.5.1.4 1.8-.2 1.7-.5-.1-.4-1.8.2-1.7m-2.9-17.4c-.3-.4.1-1.2.3-.8.3.4-.1 1.2-.3.8m-.6 13.7c-.2.5-.6 0-.4-.6.3-.6.7 0 .4.6m-1.8-10.2c.2-.5.6 0 .4.6-.2.5-.6-.1-.4-.6m-.4 20.4c-.3-.1-.2-1.1.1-1 .4.1.3 1.1-.1 1m-3.4-24.4c.4.6-.1 2-.5 1.4s.1-2 .5-1.4m-1.3 20.1c-.4-.6.1-2 .5-1.4.5.6-.1 2-.5 1.4m-.9 1c-.4-.6.1-2 .5-1.4.5.6-.1 2-.5 1.4m-.8-9.5c-.3-.4.1-1.2.3-.8.3.3-.1 1.2-.3.8m-4.8-2c-.3-.4.1-1.2.3-.8.3.3 0 1.2-.3.8m-.7 9.2c-.3-.4.1-1.2.3-.8.3.3-.1 1.1-.3.8m2 82.8c-.4-.6.1-2 .5-1.4.5.6-.1 2-.5 1.4m5-25.3c.5.1.4 1.8-.2 1.7-.5-.2-.4-1.8.2-1.7m.3 21.7c-.2.5-.6 0-.4-.6.2-.5.6.1.4.6m3.8-.8c-.4-.6.1-2 .5-1.4.5.6 0 2-.5 1.4m-.3-11.3c-.9-1.2.2-4 1.1-2.8.8 1.2-.3 4-1.1 2.8m2.6-3.2c-.1.3-.3.2-.4 0 0 .1 0 .3-.1.4-.4.9-1-.1-.7-1 .2-.6.6-.3.7.2 0-.1 0-.1.1-.2.2-.5.6 0 .4.6m.5 12.2c.7-1.8 2 .2 1.3 1.9-.7 1.8-2-.2-1.3-1.9m1.7 4.7c-.2.5-.6 0-.4-.6.2-.5.6.1.4.6m1-1.6c-.4-.6.1-2 .5-1.4.5.6 0 2-.5 1.4m3-5.7c-1.1-.2-.8-3.6.3-3.3 1.1.2.7 3.5-.3 3.3m4.2-11.2c-.3-.1-.2-1.1.1-1s.2 1.1-.1 1m5.2 4.6c-.3-.4.1-1.2.3-.8.3.4 0 1.2-.3.8m.7-8.2c-.4.9-1-.1-.7-1 .4-.9 1 .1.7 1m2.6-.9c-.4.9-1-.1-.7-1 .4-.8 1 .1.7 1m1.9 1.6c-.5-.1-.4-1.8.2-1.7.5.1.3 1.8-.2 1.7m3.6-.5c-.2.5-.6 0-.4-.6.2-.5.6.1.4.6m-.5-5.6c-.4-.6.1-2 .5-1.4s-.1 2-.5 1.4m.4-3.3c.4.6-.1 2-.5 1.4-.5-.6 0-2 .5-1.4m1.7 21.5c-.4-.6.1-2 .5-1.4.5.6-.1 2-.5 1.4m3.5-11.3c-1.1-.2-.8-3.6.3-3.3 1.1.2.8 3.5-.3 3.3m-4.3-13.2c.1.2.2.7 0 1.1-.3.8-.9.1-.7-.7-2.4 1.5-5 2.8-7.7 3.9-5.3 2.1-11.1 3.3-17.4 3.8l-1.5.1c-.1.2-.2.1-.3 0l-11.6.7v-51.5l8.6 1.3c.1-1.1.8-2.2 1.4-1.3.3.4.4 1 .3 1.6l.5.1h.2l3.5.5h.2q-.15-.3 0-.6c.2-.5.6 0 .4.6 6.2 1 12.3 3.4 18 7.1 1.8 1.2 3.7 2.5 5.5 4-.1-.5.1-1.4.4-1.3.5.1.4 1.5 0 1.6 2.3 1.9 4.6 4.1 6.8 6.5l8.9 9.5-9.7 8.6c-1.9 1.7-3.8 3.1-5.8 4.4M1472.9 934.9c-.1-1.1.3-2.4 1-2.3.2 0 .3.1.4.3 8.9-12.9 16.3-27.3 22.4-43.3.4-1.1.3-2.3-.2-3.3-.3-.7-.7-1.3-1-2-.1 0-.2-.2-.2-.4-2.5-5-5.2-9.8-7.9-14.4 0 .4-.2.8-.5.8.1.7-.3 1.5-.7 1s-.1-1.5.3-1.6c-.1-.5.1-1 .3-1.1a283 283 0 0 0-10.3-15.7c-.1.2-.2.2-.3.1-.1-.2-.1-.4-.1-.6-2.7-3.7-5.5-7.3-8.4-10.9 0 .5-.2 1.1-.5 1.1-.5-.1-.4-1.5 0-1.7-1.3-1.6-2.7-3.1-4-4.7.1.5-.1 1.3-.5 1.3-.5-.1-.4-1.7.1-1.7q-7.5-8.4-15.9-16.2c-.1.4-.4.6-.6.3s-.2-.6-.1-1c-2.2-2-4.4-3.9-6.6-5.8-.1 0-.1.1-.2 0-.2 0-.3-.2-.3-.5-5.5-4.6-11.2-9-17.3-13.3-15.9 11.7-30.8 26.7-45.5 45.6 0 .3-.1.7-.3.6 0 0-.1 0-.1-.1-.1.2-.2.3-.4.5.2 0 .3.1.5.3.9 1.2-.2 4.1-1.1 2.9-.4-.6-.4-1.4-.2-2.1-7.7 10.1-15.3 21.3-22.9 33.7-3.4 5.5-3.4 12.6 0 18.1 22.3 35.7 47.1 63.2 73.8 81.7 18.8-12.5 34.5-27.6 47.3-45.6m20.7-53.3c.3.4-.1 1.2-.3.9-.3-.4.1-1.2.3-.9m-.7 2c.5.6-.1 2-.5 1.4-.5-.5 0-2 .5-1.4m-1.9 6.4c.4.5-.1 1.6-.4 1.1-.4-.4 0-1.6.4-1.1m-1.6 5.6c.3.4-.1 1.2-.3.9-.3-.4 0-1.2.3-.9m-.1-5.4c-.2.5-.6-.1-.4-.6s.6.1.4.6m-.7-5.7c.2-.5.6.1.4.6s-.6 0-.4-.6m-.2 15.7c-.4.9-1-.1-.7-1 .4-.9 1 .1.7 1m-.6-5.7c.6.1.4 1.8-.2 1.7s-.4-1.8.2-1.7m-9.4 19.7c-.4.9-1-.1-.7-1 .4-.9 1.1.1.7 1m7-7.1c.2-.5.6.1.4.6-.3.5-.7-.1-.4-.6m0 3.1c.3.1.2 1.1-.1 1s-.3-1.1.1-1m-.3-34.5c.3.4-.1 1.2-.3.9-.3-.4 0-1.2.3-.9m-.6 26.5c-.2.5-.6-.1-.4-.6s.6.1.4.6m-.7-12.2c.2-.5.6.1.4.6s-.6 0-.4-.6m-.8 19.8c.6.1.4 1.8-.2 1.7-.5-.1-.3-1.8.2-1.7m-.7-29.7c.2-.5.6.1.4.6s-.6-.1-.4-.6m-.3 20.1c.3.1.2 1.1-.1 1s-.2-1.1.1-1m-1.4 7.1c.2-.5.6.1.4.6-.2.6-.6 0-.4-.6m-.3-5.6c.3.4-.1 1.2-.3.9-.3-.4 0-1.3.3-.9m-.2 7.2c-.2.5-.6-.1-.4-.6s.6.1.4.6m-.7-44.5c.6.1.4 1.8-.2 1.7-.5-.1-.4-1.8.2-1.7m-.1 35.5c.9 1.2-.2 4.1-1.1 2.9-.9-1.3.2-4.1 1.1-2.9m-.9-23.9c.5.6-.1 2-.5 1.4-.5-.5.1-2 .5-1.4m-.8 19.3c.5.6-.1 2-.5 1.4-.5-.6.1-2 .5-1.4m-.9 1c.5.6-.1 2-.5 1.4-.5-.6 0-2 .5-1.4m-1.1-9.2c.3.4-.1 1.2-.3.9-.3-.4 0-1.2.3-.9m-1.9 14.9c-.3.7-.8-.1-.5-.8.2-.7.8.1.5.8m0-45.8c.6.1.4 1.8-.2 1.7-.5-.1-.3-1.8.2-1.7m-.4 16.2c.3.4-.1 1.2-.3.9-.3-.5 0-1.3.3-.9m-119 12.4c-.6-.1-.4-1.8.2-1.7.5.1.3 1.8-.2 1.7m7-15.7c.4-.9 1 .1.7 1s-1.1-.1-.7-1m.6 10c-.3-.1-.2-1.1.1-1 .4 0 .3 1-.1 1m-.1-6.7c-.6-.1-.4-1.8.2-1.7.5.1.4 1.8-.2 1.7m2.5 44.5c-.3-.4.1-1.2.3-.9.3.4-.1 1.3-.3.9m.3-50.1c-.3-.1-.2-1.1.1-1s.3 1.1-.1 1m2 48.9c-1.1-.2-.8-3.7.3-3.4 1.2.2.9 3.6-.3 3.4m.6-47.8c-.6-.1-.4-1.8.2-1.7.5.1.4 1.8-.2 1.7m2.4 56c-.3-.1-.2-1.1.1-1 .3 0 .2 1.1-.1 1m3.9-49.6c-.7 1.8-2.1-.2-1.4-2s2.1.2 1.4 2m83.1 44.4c-.6-.1-.4-1.8.2-1.7.5.1.4 1.8-.2 1.7m0-14.6c-.5-.6.1-2 .5-1.4.5.6 0 2-.5 1.4m1.1 12.9c-.6-.1-.4-1.8.2-1.7.5.1.4 1.8-.2 1.7m1.1-11.9c-.4-.5.1-1.6.4-1.1.4.5 0 1.6-.4 1.1m.3 37.4c.2-.5.6.1.4.6s-.6-.1-.4-.6m.5 7.5c-.5-.6.1-2 .5-1.4.5.6-.1 2-.5 1.4m3.9-29c-.6-.1-.4-1.8.2-1.7.5.1.4 1.8-.2 1.7m1.6 13.4c-.6-.1-.4-1.8.2-1.7s.4 1.8-.2 1.7m1.5 1.1c-.2.5-.6-.1-.4-.6s.6.1.4.6m0-41.3c.4-.9 1 .1.7 1-.4.9-1-.1-.7-1m.7 46c-.5-.6.1-2 .5-1.4.5.6-.1 2-.5 1.4m.7-76.4c-.6-.1-.4-1.8.2-1.7s.4 1.8-.2 1.7m1.8 62.2c-.2.5-.6-.1-.4-.6s.6.1.4.6m.6-40.1c-.3-.4.1-1.2.3-.9.3.4 0 1.3-.3.9m1.9-30c.6.1.4 1.8-.2 1.7-.5-.1-.3-1.8.2-1.7m-.8 16.8c.5.1.3 1.5-.1 1.4-.5-.1-.4-1.5.1-1.4m-.6-3.6c.5.6-.1 2-.5 1.4-.5-.6 0-2 .5-1.4m-.9 25.4c.3.4-.1 1.2-.3.9-.3-.4 0-1.3.3-.9m-.7-21c.6.1.4 1.8-.2 1.7-.5-.1-.4-1.8.2-1.7m-.7-29.8c.2-.5.6.1.4.6s-.7-.1-.4-.6m-.3 1c.5.6-.1 2-.5 1.4-.5-.6 0-2.1.5-1.4m-.4 58.8c.5.6-.1 2-.5 1.4-.5-.6.1-2 .5-1.4m-.5-16.4c-.2.5-.6-.1-.4-.6.3-.6.7 0 .4.6m-.7-23.9c.6.1.4 1.8-.2 1.7-.5-.1-.4-1.9.2-1.7m-.6-4c.5.6-.1 2-.5 1.4s.1-2.1.5-1.4m-.6 6.1c.5.6-.1 2-.5 1.4-.5-.6.1-2 .5-1.4m-.3-25.1c.3.4-.1 1.2-.3.9-.3-.4 0-1.3.3-.9m-.1 50.7c.1.2.2.5.2.7.1.1.2.4.1.7s-.3.2-.4 0c-.1.1-.3.1-.4-.1-.5-.5.1-1.9.5-1.3m-.2 35.7c-.4.9-1-.1-.7-1s1 .1.7 1m-.9-37.3c.5.6-.1 2-.5 1.4-.5-.6 0-2 .5-1.4m-.7-18.3c.5.6-.1 2-.5 1.4-.5-.6.1-2 .5-1.4m-.4-13.1c-.1.2-.1.2-.2.3 0 .6-.4 1.3-.7.8-.3-.4-.1-1.2.1-1.5 0-.2 0-.4.1-.6.3-.9 1 .1.7 1m-1.1-11.1c.6.1.4 1.8-.2 1.7-.5-.1-.4-1.8.2-1.7m-.2 92c.3.4-.1 1.2-.3.9-.3-.4 0-1.3.3-.9m-.6-37.4c-.3.7-.8-.1-.5-.8.2-.7.8.1.5.8m-.3-39.2c.5.6-.1 2-.5 1.4-.5-.6.1-2 .5-1.4m-1 12.6c.6.1.4 1.8-.2 1.7-.5-.2-.4-1.9.2-1.7m-1.4-41.9c.3.1.3.8 0 1 .2.3.1 1-.2.9s-.3-.8 0-1c-.2-.2-.1-.9.2-.9m.1 36.4c-.2.5-.6-.1-.4-.6.2-.6.6 0 .4.6m-1.2-13.2c-.1-.4.2-1 .4-.7s0 1-.2.9c.1.4-.2 1-.4.7-.2-.2 0-.9.2-.9m0 15.2c.5.6-.1 2-.5 1.4-.5-.6.1-2 .5-1.4m-.9-25.1q.15-.15.3 0c.4.5-.1 1.6-.4 1.1-.1-.2-.2-.4-.1-.7-.4.4-.9-.4-.5-1.2.2-.7.8 0 .7.8m-.7 13.3c.6.1.4 1.8-.2 1.7-.5-.1-.3-1.8.2-1.7m-.2-12.6c.6.1.4 1.8-.2 1.7s-.4-1.8.2-1.7m.4 3.2c-.6-.1-.4-1.8.2-1.7.5.1.3 1.8-.2 1.7m-.3-14.3c.5.6-.1 2-.5 1.4-.5-.6 0-2 .5-1.4m-1 .4c.5.6-.1 2-.5 1.4-.5-.6 0-2.1.5-1.4m-2.4-9.2c.2-.5.6.1.4.6-.2.6-.6 0-.4-.6m-.3 35.9c.6.1.4 1.8-.2 1.7s-.4-1.8.2-1.7m-1-28.3c.5.6-.1 2-.5 1.4-.5-.6.1-2 .5-1.4m-2.9-1.5c.6.1.4 1.8-.2 1.7-.5-.1-.3-1.8.2-1.7m-.4 15.1c.4-.9 1 .1.7 1-.4.9-1.1-.1-.7-1m-.5-26.8c.6.1.4 1.8-.2 1.7-.5-.1-.3-1.8.2-1.7m-2.9 28.9c.4-.9 1 .1.7 1-.4.9-1.1-.1-.7-1m-1-8.5c.4-.9 1 .1.7 1s-1-.1-.7-1m-1.2-19.6c.3.4-.1 1.2-.3.9-.3-.4 0-1.2.3-.9m-.7-.3c.3.4-.1 1.2-.3.9-.3-.5 0-1.3.3-.9m-2.7 2.7c.5.6-.1 2-.5 1.4-.5-.6 0-2 .5-1.4m-1-6.5c.5.6-.1 2-.5 1.4-.5-.6.1-2 .5-1.4m-1.6.9c.3.1.2 1.1-.1 1-.4 0-.3-1 .1-1m-.8.3c.3.1.2 1.1-.1 1-.3 0-.2-1 .1-1m-.5 14.3c-.2.5-.6-.1-.4-.6s.6.1.4.6m-.6-6.3c.5.6-.1 2-.5 1.4-.5-.6.1-2.1.5-1.4m-.7-3.1c.6.1.4 1.8-.2 1.7s-.4-1.8.2-1.7m-1.5 13.7c-.3.7-.8-.1-.5-.8s.8.1.5.8m-.4-12.4c-.2.5-.6-.1-.4-.6.3-.5.7.1.4.6m-.6-6c.6.1.4 1.8-.2 1.7-.5-.1-.3-1.8.2-1.7m0 16.9c-.4.9-1-.1-.7-1 .4-.9 1 .1.7 1m-1-5.9c.6.1.4 1.8-.2 1.7-.5-.1-.3-1.9.2-1.7m-2.8-26.2c.4-.9 1 .1.7 1-.4.9-1.1-.1-.7-1m-.7 8.3c-.3-.4.1-1.2.3-.9.3.4 0 1.2-.3.9m-.1-5.2c.6.1.4 1.8-.2 1.7-.5-.1-.3-1.8.2-1.7m-2.3 16.7c.2-.5.6.1.4.6s-.6-.1-.4-.6m-3.8-21c.6.1.4 1.8-.2 1.7-.5-.1-.4-1.8.2-1.7m-.9 21.9c-.3-.1-.2-1.1.1-1s.2 1.1-.1 1m-.3-18.8c.2-.5.6.1.4.6-.2.6-.6 0-.4-.6m-.4 9.6c.6.1.4 1.8-.2 1.7s-.4-1.8.2-1.7m-1.8 5.6c.4-.9 1 .1.7 1-.4.8-1.1-.1-.7-1m-1.8-11.3c.3.1.2 1.1-.1 1-.4-.1-.3-1.1.1-1m-1.3 26c.4.5-.1 1.6-.4 1.1-.4-.5.1-1.6.4-1.1m-2.1-16.6c.6.1.4 1.8-.2 1.7-.5-.1-.4-1.9.2-1.7m-.8 8.1c.4-.9 1 .1.7 1s-1-.1-.7-1m-5.8 9.7c.5.6-.1 2-.5 1.4-.5-.6.1-2 .5-1.4m-1.2 7.9c.4-.9 1 .1.7 1-.4.9-1.1-.1-.7-1m-2.4-13.6c.6.1.4 1.8-.2 1.7-.5-.1-.4-1.8.2-1.7M1398 853c.4-.9 1 .1.7 1-.4.9-1.1-.1-.7-1m-4.1-5.7c.6.1.4 1.8-.2 1.7-.5-.1-.4-1.8.2-1.7m-.7-9.4c.3.1.2 1.1-.1 1-.3 0-.2-1.1.1-1m-.5 5.5c.3.1.2 1.1-.1 1s-.2-1.1.1-1m-1.4 20.6c.2-.5.6.2.4.7-.3.6-.6-.2-.4-.7m-1.4 4.4c-.6-.1-.4-1.8.2-1.7.5.1.4 1.8-.2 1.7m.2-13.9c-.4.9-1-.1-.7-1 .4-.9 1 .1.7 1m-.8-3.5c.4-.9 1 .1.7 1-.4.9-1.1-.1-.7-1m-2.3-12.8c.6.1.4 1.8-.2 1.7-.5-.2-.4-1.9.2-1.7m-11.3 78.6c-.5-.6.1-2 .5-1.4.5.5-.1 2-.5 1.4m1.8-58c.4-.9 1 .1.7 1-.4.9-1.1-.1-.7-1m.6 37.9c-.6-.1-.4-1.8.2-1.7.5.1.4 1.8-.2 1.7m.8 34.1c-.6-.1-.4-1.8.2-1.7.5.1.4 1.8-.2 1.7m.6-36c-.3-.1-.2-1.1.1-1 .3 0 .2 1-.1 1m.9-23.1c-.3-.1-.2-1.1.1-1 .3 0 .2 1.1-.1 1m5-14c.7.1.8 1.5.6 2.5.9 1.2-.2 4.1-1.1 2.9-.4.3-.8-.5-.5-1.3 0-.1.1-.2.2-.3 0-.2.1-.4.1-.6-.7-.9-.3-3.4.7-3.2m-.8 59.6c-.5-.6.1-2 .5-1.4.5.6-.1 2-.5 1.4m.8 25.1c-.6-.1-.4-1.8.2-1.7s.4 1.8-.2 1.7m.1-30.2c-.6-.1-.4-1.8.2-1.7.5.1.3 1.8-.2 1.7m3.8 24.8c-.5-.1-.3-1.5.1-1.4s.3 1.5-.1 1.4m4.4 13.6c-.6-.1-.4-1.8.2-1.7.5.1.4 1.8-.2 1.7m.3-8.6c-.3-.1-.2-1.1.1-1 .4 0 .3 1-.1 1m2.3-11.8c-.6-.1-.4-1.8.2-1.7.5.1.3 1.8-.2 1.7m.2-8.8c-.6-.1-.4-1.8.2-1.7.5.1.3 1.8-.2 1.7m3.2 10.6c-.3-.1-.2-1.1.1-1 .3 0 .2 1-.1 1m1.5.1c-.6-.1-.4-1.8.2-1.7.5.1.3 1.8-.2 1.7m1.8 20.1c-.3-.1-.2-1.1.1-1 .4 0 .3 1.1-.1 1m8.7 3.5c-.6-.1-.4-1.8.2-1.7.5.1.4 1.8-.2 1.7m10.2-13.7c-.2.5-.6-.1-.4-.6.2-.6.6 0 .4.6m3.8 9.1c-.2.5-.6-.1-.4-.6.2-.6.6 0 .4.6m1.8-5.8c-.2.5-.6-.1-.4-.6s.6.1.4.6m2.4 1.7c-.4.9-1-.1-.7-1s1 .1.7 1m.3-4c-.6-.1-.4-1.8.2-1.7.5.1.4 1.8-.2 1.7m5.2 12c-.4.9-1-.1-.7-1s1 0 .7 1m-2.3-25.6q.15.45 0 .9c-.2.6-.6.4-.8-.2l-.5.5-.1.1c.1.3.1.6 0 1-.3.6-.7.3-.8-.2l-8.2 7.9-9.1-8.8c-12.3-11.9-21.1-23.8-26.7-36.4-3.2-7-2.8-15.2 1.1-21.9 7.4-12.7 15.7-23.7 25.3-33.5l9.8-10 9 10.2c0-.2 0-.4.1-.6.4-.9 1 .1.7 1-.1.1-.1.2-.2.3 2.4 2.7 4.7 5.4 6.8 8.1 2.1 2.6 4.1 5.3 6 7.9.2-.3.5.1.4.5 4.6 6.5 8.5 12.8 11.8 19.3 3.4 6.8 3.4 14.9-.1 21.7-2.2 4.3-4.8 8.5-7.8 12.8s-6.5 8.5-10.5 12.9c-1.9 2.2-4 4.3-6.2 6.5m7.1 30.8c-.4.9-1-.1-.7-1 .4-.9 1.1.1.7 1m.2-25.7c-.2.5-.6-.1-.4-.6.2-.6.7 0 .4.6m.7 25.8c-.2.5-.6-.1-.4-.6.2-.6.6 0 .4.6m2.7-39.4c-.4.9-1-.1-.7-1s1 .1.7 1m2.7-.2c-.2.5-.6-.1-.4-.6s.6.1.4.6m3.4 20.4c-.2.5-.6-.1-.4-.6.2-.6.6 0 .4.6m.6-17.5c-.4.9-1-.1-.7-1 .4-.9 1.1 0 .7 1m.5-10c-.4.9-1-.1-.7-1 .4-.9 1.1.1.7 1" class="st0"/><path d="M1316.7 970.5c-.6-.1-.8-1.2-.6-2.1l-36.1-75c.1.3 0 .8-.3.8-.3-.1-.2-1.1.1-1 .1 0 .1.1.1.1l-.5-1.1 9.6-6c13.8-8.6 22.6-19.5 26.7-33.2-13.9-26.5-36.8-42.7-70.8-49.7 0 .2 0 .5-.1.7-.3.9-1 0-.7-.9-6.3-1.3-13-2.2-20-2.8.1.5.1 1.1-.1 1.8-.7 1.7-2-.1-1.3-1.9-4.9-.4-10-.7-15.3-.8-2.1-.1-4.2-.1-6.4-.1-2.5 0-5.1 0-7.7.1 1.4 3.8 2.2 7.8 2.3 11.8 1 29.2 1.2 59.6.7 91.8v.7c-.4 24.5-1.2 50-2.5 76.7h31.3l-1.4-87.1 9.4 7.1c1.2.9 2.3 1.8 3.4 2.7.1 0 .1-.1.2-.1.2 0 .3.2.3.5 1.3 1 2.5 2.1 3.7 3.2h.1c.1 0 .1.1.2.2 8 7.3 14.8 15.9 20 25.4 0 .1.1.2.1.3 2.7 4.9 5.2 10.1 7.7 15.7 0-.5.2-.9.5-.9.5.1.4 1.8-.2 1.7.1.2.2.3.2.5 0-.4.2-.8.5-.7.5.1.4 1.6-.1 1.7 3.7 8.8 7.3 18.6 10.9 29.8h41.2l-4.9-10.1c0 .2-.1.2-.2.2m-6.6-110.1c.5.1.4 1.8-.2 1.7-.5-.2-.3-1.8.2-1.7m-5.8-22.1c.3.1.2 1.1-.1 1s-.2-1.1.1-1m.1 16.8c.5.1.4 1.8-.2 1.7-.5-.1-.3-1.8.2-1.7m-108.2 91c.5.1.4 1.8-.2 1.7-.5-.1-.4-1.8.2-1.7m0 15.3c-.5-.1-.4-1.8.2-1.7.4.1.3 1.8-.2 1.7m1.3-75.6c-.5-.1-.4-1.8.2-1.7.5.1.4 1.8-.2 1.7m1.9 24.6c.4.1.3 1.4-.1 1.3s-.3-1.4.1-1.3m.3 20.2c.5.1.4 1.8-.2 1.7-.5-.2-.4-1.8.2-1.7m.1 13.9c-.5-.1-.4-1.8.2-1.7.5.2.3 1.8-.2 1.7m.3-10.8c-.5-.1-.4-1.8.2-1.7.5.2.3 1.8-.2 1.7m.4-105.5c-.3-.1-.2-1.1.1-1 .3 0 .2 1-.1 1m2.4 6.8c.5.1.4 1.8-.2 1.7-.5-.2-.4-1.8.2-1.7m-1.5 71.6c-.5-.1-.4-1.8.2-1.7.5.2.3 1.8-.2 1.7m.9 12.3c-.3-.1-.3-.8 0-1-.2-.2-.1-1 .2-.9s.3.8 0 1c.2.3.1 1-.2.9m.5-52.4c-.5-.1-.4-1.8.2-1.7.5.1.3 1.8-.2 1.7m.9 92.8c-.5-.1-.4-1.8.2-1.7.5.2.4 1.8-.2 1.7m88.1-96.9c-.5-.1-.4-1.8.2-1.7.5.2.3 1.8-.2 1.7m8.8 7.6c.5.1.4 1.8-.2 1.7-.5-.2-.4-1.8.2-1.7m-1.6-5.4c.3.1.2 1.1-.1 1s-.2-1.1.1-1m-3.8-1.5c.3.1.2 1.1-.1 1s-.2-1.1.1-1m-1.4-10.1c.5.1.4 1.8-.2 1.7-.5-.2-.4-1.9.2-1.7m-2.2-7.3s0 .1.1.1c.1-.1.2-.2.3-.2.5.1.4 1.8-.2 1.7q-.15 0-.3-.3c-.1.2-.3.3-.5.1-.4-.6.1-2 .6-1.4m-1.4-13.7c.4.6-.1 2-.5 1.4-.5-.6.1-2 .5-1.4m-.5 40.8c.3.1.2 1.1-.1 1s-.2-1 .1-1m-.3 7.8c.5.1.4 1.8-.2 1.7-.5-.2-.3-1.8.2-1.7m-.8-34.1c.5.1.4 1.8-.2 1.7-.5-.2-.3-1.8.2-1.7m-1.8-12.7c.3.1.2 1.1-.1 1s-.3-1.1.1-1m-1.7 33.8c.4.1.3 1.4-.1 1.3-.5 0-.3-1.4.1-1.3m-.9-46.1c.3.1.2 1.1-.1 1s-.2-1.1.1-1m0 59.9c.3.1.2 1.1-.1 1s-.2-1.1.1-1m-2.8-8.8c.5.1.4 1.8-.2 1.7-.5-.2-.3-1.8.2-1.7m-.4-21c.3.1.2 1.1-.1 1s-.2-1.1.1-1m-1.1-4.5c.3.1.2 1.1-.1 1-.4-.1-.3-1.1.1-1m-4.5-19c.4-.9 1 .1.7 1-.4.9-1.1-.1-.7-1m-2.5 19.9c.5.1.4 1.8-.2 1.7-.5-.1-.4-1.8.2-1.7m-2.4-26.4c-.5-.1-.4-1.8.2-1.7.5.1.3 1.8-.2 1.7m-.1-3.1c-.4-.1-.3-1.4.1-1.3.5.1.4 1.4-.1 1.3m0-4c.5.1.4 1.8-.2 1.7-.5-.2-.3-1.8.2-1.7m-2.5.6c.4-.9 1 .1.7 1-.3.8-1-.1-.7-1m-3.7 7.1c.3.1.2 1.1-.1 1-.4-.1-.3-1.1.1-1m-1.1 3.7c.5.1.4 1.8-.2 1.7-.5-.2-.4-1.9.2-1.7m-4.1 1c.3.4-.1 1.2-.3.8-.2-.3.1-1.2.3-.8m-6.2-1.1c.5.1.4 1.8-.2 1.7-.5-.2-.4-1.9.2-1.7m-1-17.6c.5.1.4 1.8-.2 1.7-.5-.2-.4-1.8.2-1.7m-6.1 1.6c.4.6-.1 2-.5 1.4s.1-2 .5-1.4m.2 19.6c.9 1.2-.2 4-1.1 2.8-.8-1.2.3-4 1.1-2.8m-2.4-11.1c1.1.2.8 3.6-.3 3.3-1.1-.2-.8-3.5.3-3.3m-2 10.3c.4-.9 1 .1.7 1-.4.9-1-.1-.7-1m-7-4.7c1.1.2.8 3.6-.3 3.3-1.1-.2-.8-3.5.3-3.3m0 5.7c-.5-.1-.4-1.8.2-1.7.5.2.3 1.8-.2 1.7m-5.7-9c-.2.5-.6 0-.4-.6s.6 0 .4.6m-.7-8.2c.5.1.4 1.8-.2 1.7-.5-.2-.3-1.9.2-1.7m-12.7 39.5c.3.1.2 1.1-.1 1s-.3-1.1.1-1m-3.7-28.5c.4-.9 1 .1.7 1-.4.9-1.1-.1-.7-1m.2 35.8c.5.1.4 1.8-.2 1.7-.5-.1-.3-1.8.2-1.7m-.1 59c.5.1.4 1.8-.2 1.7-.5-.2-.3-1.8.2-1.7m-.8-5.6c.5.1.4 1.8-.2 1.7-.5-.2-.4-1.8.2-1.7m-.6-110.2c.5.1.4 1.8-.2 1.7-.5-.2-.3-1.8.2-1.7m-2.6 67c-.3-.1-.2-1.1.1-1s.2 1.1-.1 1m-.3-9.1c.5.1.4 1.8-.2 1.7-.5-.1-.4-1.8.2-1.7m-1.4-32.9c.3.1.2 1.1-.1 1s-.2-1.1.1-1m-.5 70.4c.3.1.2 1.1-.1 1s-.2-1.1.1-1m.1 34.4c-.5-.1-.4-1.8.2-1.7.5.1.4 1.8-.2 1.7m.7-37.8c.3.1.2 1.1-.1 1s-.2-1.1.1-1m.3 27.1c-.5-.1-.4-1.8.2-1.7.5.2.4 1.8-.2 1.7m.5-5.3c-.5-.1-.4-1.8.2-1.7.5.2.3 1.8-.2 1.7m.9-32.3c-.5-.1-.4-1.8.2-1.7.5.1.3 1.8-.2 1.7m.4 7.4c-.3-.1-.2-1.1.1-1 .4.1.3 1.1-.1 1m.6-18.4c.5.1.4 1.8-.2 1.7-.5-.2-.4-1.8.2-1.7m.2 27.5c-.5-.1-.4-1.8.2-1.7.5.1.4 1.8-.2 1.7m.6 26.5c-.5-.1-.4-1.8.2-1.7.5.2.3 1.8-.2 1.7m.6 21.2c-.5-.1-.4-1.8.2-1.7.5.1.3 1.8-.2 1.7m.6-21.6c-.5-.1-.4-1.8.2-1.7.5.1.3 1.8-.2 1.7m.9 20.5c-.5-.1-.4-1.8.2-1.7.5.2.3 1.8-.2 1.7m.2-111c-.3-.1-.2-1.1.1-1s.2 1.1-.1 1m.8 122.1c-.5-.1-.4-1.8.2-1.7.5.1.4 1.8-.2 1.7m2.2-1.1c-.4-.1-.3-1.4.1-1.3.5.1.3 1.4-.1 1.3m.8-15.9c-.5-.1-.4-1.8.2-1.7.5.1.3 1.8-.2 1.7m.3-69c-.3-.1-.2-1.1.1-1s.2 1.1-.1 1m.6 2.7c.4-.9 1 .1.7 1-.4.8-1-.2-.7-1m.4 66.5c-.5-.1-.4-1.8.2-1.7.5.2.4 1.9-.2 1.7m.1-23c-.5-.1-.4-1.8.2-1.7.5.1.3 1.8-.2 1.7m.1-31.2c-.5-.1-.4-1.8.2-1.7.4.2.3 1.8-.2 1.7m1 11.7c-.3-.1-.2-1.1.1-1 .3 0 .2 1-.1 1m.2-10.1c-.5-.1-.4-1.8.2-1.7.5.2.3 1.9-.2 1.7m1-43.3c.4-.9 1 .1.7 1-.4.8-1.1-.1-.7-1m.7 72.7c-.3-.1-.2-1.1.1-1s.2 1.1-.1 1m.6 12.8c-.3-.1-.2-1.1.1-1 .4.1.3 1.1-.1 1m.4-110.2c-.3-.1-.2-1.1.1-1 .4.1.3 1.1-.1 1m1-3.8c.3.1.2 1.1-.1 1-.3 0-.2-1 .1-1m.3 121.5c.3.1.2 1.1-.1 1s-.3-1.1.1-1m.1 10.8c-.5-.1-.4-1.8.2-1.7.5.2.4 1.9-.2 1.7m.5-122c-.3-.1-.2-1.1.1-1 .4 0 .3 1-.1 1m14.2 74.6c-.3-.1-.2-1.1.1-1 .4 0 .3 1-.1 1m5.3 4.9c-.3-.1-.2-1.1.1-1 .4.1.3 1.1-.1 1m10.2 4.8c-.3-.1-.2-1.1.1-1s.2 1-.1 1m4-26.1c-.3-.1-.2-1.1.1-1s.2 1.1-.1 1m1.7-2.5c-.4.9-1-.1-.7-1 .4-.9 1.1.1.7 1m2.9 23.2c-.5-.1-.4-1.8.2-1.7.5.2.3 1.9-.2 1.7m1.3-17c-.3-.1-.2-1.1.1-1s.2 1.1-.1 1m2 32.9c-.5-.1-.4-1.8.2-1.7.5.1.4 1.8-.2 1.7m3.9-29.7c-.5-.1-.4-1.8.2-1.7.5.1.4 1.8-.2 1.7m.8-1.5c-1.1-.2-.8-3.6.3-3.3 1.1.2.8 3.5-.3 3.3m3.5 52.3c-.5-.1-.4-1.8.2-1.7.5.1.4 1.8-.2 1.7m.1-56.1c.3.1.2 1.1-.1 1-.4-.1-.3-1 .1-1m2.8 77.3c-.5-.1-.4-1.8.2-1.7.5.1.4 1.8-.2 1.7m.2-54.9c-.5-.1-.4-1.8.2-1.7.5.1.4 1.8-.2 1.7m-.8-47.7c.1.5-.1 1.4-.4 1.3-.1 0-.1-.1-.2-.1l-1.5 2.6c-3.4 6-8.2 10.9-14.2 14.5.1.3 0 .9-.2.9s-.2-.3-.2-.6c-1.1.6-2.1 1.2-3.3 1.8-2.1 1-4.3 1.9-6.7 2.7.1 1-.2 2.4-1 2.3-.5-.1-.7-1-.7-1.8-2.7.8-5.5 1.5-8.6 2l-14.7 2.1-.1-4.2v-57.4l9.9 2.3 5.5 1.3c6.2 1.4 11.7 3.3 16.4 5.6 7.9 3.9 13.9 9.3 17.8 15.9l3.7 6.3zm1.3-21.4c-.5-.1-.4-1.8.2-1.7.5.2.4 1.8-.2 1.7m1.3-21c.4-.9 1 .1.7 1-.4.9-1-.1-.7-1m.8 54.7c-.5-.1-.4-1.8.2-1.7.5.1.3 1.8-.2 1.7m.4-50.1c-.5-.1-.4-1.8.2-1.7.5.2.4 1.8-.2 1.7m13.7 96.9c.5.1.4 1.8-.2 1.7-.5-.1-.3-1.8.2-1.7m-12.6 7c-.5-.1-.4-1.8.2-1.7.5.2.3 1.8-.2 1.7m1.3 40.9c-.3-.1-.2-1.1.1-1 .4.1.3 1-.1 1m.5-5.3c-.3-.1-.2-1.1.1-1 .3 0 .2 1-.1 1m1.8-34.6c-1.1-.2-.8-3.6.3-3.3 1.1.2.8 3.5-.3 3.3m7 4.2c-.5-.1-.4-1.8.2-1.7.5.1.3 1.8-.2 1.7m1.8-4.3c-1.1-.2-.8-3.6.3-3.3 1.1.2.7 3.6-.3 3.3m5.5 44.8c-.5-.1-.4-1.8.2-1.7.5.2.4 1.9-.2 1.7m1.6-27.4c-.5-.1-.4-1.8.2-1.7.5.1.4 1.8-.2 1.7m5.8 9.6c-.3-.1-.2-1.1.1-1s.2 1.1-.1 1m1 17.8c-.5-.1-.4-1.8.2-1.7.5.1.4 1.8-.2 1.7M924.4 1149.8l50.8 50.8 39.3-39.3-5.7-5.8v.1l-27.9-28-5.7-5.7-5.8 5.7-16.4 16.5-5.8 5.7 5.8 5.7 22.2 22.2 5.7-5.7 5-5 5.7-5.7-5.7-5.8-10.7-10.7-5.8 5.7 10.8 10.8-5 5-16.5-16.5 16.5-16.4 27.9 27.9-27.9 27.9-39.4-39.4 39.4-39.3 15.2 15.2 24.1 24.1 5.7 5.7 5.7-5.7-50.7-50.7zM1109.6 1116.2l-33.7 33.6 33.7 33.7 26-26.1-3.8-3.8-18.4-18.5-3.8-3.8-3.8 3.8-10.9 10.9-3.8 3.8 3.8 3.8 14.7 14.7 3.8-3.8 3.3-3.3 3.8-3.8-3.8-3.8-7.1-7.1-3.8 3.8 7.1 7.1-3.3 3.3-11-10.9 11-10.9 18.5 18.5-18.5 18.5-26.1-26.1 26.1-26 10.1 10.1 15.9 15.9 3.8 3.8 3.8-3.8zM807.1 1149.8l33.6 33.7 26.1-26.1-3.8-3.8-18.5-18.5-3.8-3.8-3.7 3.8-11 10.9-3.7 3.8 3.7 3.8 14.7 14.7 3.8-3.8 3.4-3.3 3.8-3.8-3.8-3.8-7.2-7.1-3.7 3.8 7.1 7.1-3.4 3.3-10.9-10.9 10.9-10.9 18.5 18.5-18.5 18.5-26-26.1 26-26 10.1 10.1 16 15.9 3.8 3.8 3.8-3.8-33.7-33.6z" class="st0"/></svg>